<?xml version="1.0" encoding="utf-8"?>
<!-- Generator: Adobe Illustrator 27.0.0, SVG Export Plug-In . SVG Version: 6.00 Build 0)  -->
<svg version="1.1" id="Layer_1" xmlns="http://www.w3.org/2000/svg" xmlns:xlink="http://www.w3.org/1999/xlink" x="0px" y="0px"
	 viewBox="0 0 72 36" style="enable-background:new 0 0 72 36;" xml:space="preserve">
<style type="text/css">
	.st0{fill:#D5FDFF;}
</style>
<g>
	<polygon class="st0" points="68.8,-20.6 147.4,58 139.1,58 60.5,-20.6 	"/>
	<polygon class="st0" points="50.8,-20.6 129.4,58 121.1,58 42.5,-20.6 	"/>
	<polygon class="st0" points="32.8,-20.6 111.4,58 103.1,58 24.5,-20.6 	"/>
	<polygon class="st0" points="14.8,-20.6 93.4,58 85.1,58 6.5,-20.6 	"/>
	<polygon class="st0" points="-3.2,-20.6 75.4,58 67.1,58 -11.5,-20.6 	"/>
	<polygon class="st0" points="57.4,58 49.1,58 -20.6,-11.7 -20.6,-20 	"/>
	<polygon class="st0" points="39.4,58 31.1,58 -20.6,6.3 -20.6,-2 	"/>
	<polygon class="st0" points="21.4,58 13.1,58 -20.6,24.3 -20.6,15.9 	"/>
	<polygon class="st0" points="3.4,58 -4.9,58 -20.6,42.3 -20.6,34 	"/>
</g>
</svg>
