<?xml version="1.0" encoding="utf-8"?>
<!-- Generator: Adobe Illustrator 27.0.0, SVG Export Plug-In . SVG Version: 6.00 Build 0)  -->
<svg version="1.1" id="Layer_1" xmlns="http://www.w3.org/2000/svg" xmlns:xlink="http://www.w3.org/1999/xlink" x="0px" y="0px"
	 viewBox="0 0 144 144" style="enable-background:new 0 0 144 144;" xml:space="preserve">
<style type="text/css">
	.st0{fill:#E17564;}
	.st1{clip-path:url(#SVGID_00000067219490210997454050000009708085213577965224_);}
	.st2{fill:#B1BCBC;}
</style>
<g>
	<g>
		<path class="st0" d="M72.1,6c17.1,0,33.4,6.6,45.7,18.5c12.4,11.9,19.6,28,20.2,45.2c1.3,36.4-27.2,67.1-63.6,68.4
			c-0.8,0-1.7,0.1-2.5,0.1c-17.1,0-33.4-6.6-45.7-18.4C13.8,107.7,6.6,91.6,6,74.4C4.7,38,33.2,7.4,69.6,6C70.4,6,71.2,6,72.1,6
			L72.1,6 M72.1,0c-0.9,0-1.8,0-2.7,0.1C29.6,1.5-1.4,34.9,0.1,74.6C1.5,113.5,33.4,144,71.9,144c0.9,0,1.8,0,2.7-0.1
			c39.7-1.5,70.8-34.9,69.3-74.6C142.5,30.5,110.6,0,72.1,0L72.1,0z"/>
	</g>
	<g>
		<g>
			<g>
				<g>
					<defs>
						<circle id="SVGID_1_" cx="72" cy="72" r="72"/>
					</defs>
					<clipPath id="SVGID_00000050662310119727949970000007646696997201036467_">
						<use xlink:href="#SVGID_1_"  style="overflow:visible;"/>
					</clipPath>
					<g style="clip-path:url(#SVGID_00000050662310119727949970000007646696997201036467_);">
						<path class="st2" d="M95.9,54.7c-1.7,0-2.9,0.5-3.8,1c-0.2-1.6-0.9-3.1-2-4.3c-1.3-1.3-3.1-2-5-2c-1.7,0-3.2,0.6-4.4,1.5
							c-0.9-2.9-3.6-5-6.8-5c-1.5,0-2.9,0.5-4.1,1.3v-23c-0.1-3.8-3.2-6.8-7-6.8c-1.9,0-3.7,0.7-5,2.1c-1.3,1.3-2,3.1-2,5v45.6
							l-11.7-11L44,59c-1.7-1.4-3.5-2.2-5.2-2.2c-2.3,0-3.8,1.2-4.3,1.7c-1.9,1.6-3,3.4-3,5.5c0,2.2,1.1,4,1.9,4.8l12.3,14.5
							c1,1.6,1.8,4.4,2.6,7.3c1.2,3.9,2.3,8,4.3,10.6c3.3,4.6,3.5,5.3,4.4,8.2c0.2,0.6,0.3,1.2,0.5,1.9c0.4,1.2,0.6,2.4,0.8,4.8
							c0,1.1,0,25,0,25v1.5h41.1v-2.9c-0.1-5.9-0.2-27.3-0.2-28.3c0-0.6,0-1.1,0-1.7c0.2-5.4,1.1-9.5,2.8-15.6
							c0.7-2.7,1.1-5.3,1.1-7.9V61.7C103,57.6,100.1,54.7,95.9,54.7z M100,86.3c0,2.3-0.3,4.7-1,7.1c-1.7,6.3-2.7,10.5-2.9,16.2
							c0,0.6-0.1,1.2-0.1,1.8c0,1,0.1,22.3,0.2,28.2h-35c0-3.3,0-23.1,0-23.6v0c-0.2-2.7-0.4-4-0.9-5.5c-0.2-0.7-0.4-1.3-0.5-1.9
							c-0.9-3.3-1.3-4.3-4.8-9.2c-1.6-2.2-2.7-6-3.8-9.7c-0.9-3.2-1.8-6.2-3-8.1L35.6,66.9c-0.4-0.5-1.2-1.6-1.2-2.8
							c0-1.1,0.7-2.2,2-3.2c0.3-0.3,1.2-1,2.4-1c1,0,2.2,0.5,3.3,1.4l16.7,15.9V24.5c0-1.1,0.4-2.1,1.2-2.9s1.8-1.2,2.9-1.2
							c2.2,0,4,1.7,4.1,3.8V63c0,0.8,0.7,1.5,1.5,1.5S70,63.8,70,63l0,0V52.9c0-2.2,1.8-4.1,4.1-4.1s3.9,2,3.9,4.2v10.1l0,0
							c0,0.8,0.7,1.5,1.5,1.5s1.5-0.7,1.5-1.5l0,0v-6.6c0-2.2,1.8-4.1,4.1-4.1c1.1,0,2.1,0.4,2.9,1.2s1.2,1.8,1.2,2.9v6.6l0,0l0,0
							c0,0.8,0.7,1.5,1.5,1.5s1.5-0.7,1.5-1.5c0,0,0,0,0-0.1v-1.3c0-1.2,0.3-2.2,0.9-2.9c0.4-0.5,1.3-1.1,2.8-1.1
							c2.6,0,4.2,1.5,4.2,4L100,86.3L100,86.3z"/>
						<path class="st2" d="M95.7,121.1H57.5c-1.2,0-2.1,0.9-2.1,2.1v28.2H102v-23.9C102,123.9,99.2,121.1,95.7,121.1z M91.4,134.9
							c-1.8,0-3.2-1.4-3.2-3.2s1.4-3.2,3.2-3.2s3.2,1.4,3.2,3.2S93.1,134.9,91.4,134.9z"/>
						<g>
							<rect x="36.2" y="4.2" class="st2" width="3.7" height="45.1"/>
						</g>
						<polygon class="st2" points="46.9,38.4 38.1,47.9 29.2,38.4 26.7,40.9 38.1,53.1 49.4,40.9 						"/>
					</g>
				</g>
			</g>
		</g>
	</g>
</g>
</svg>
