<?xml version="1.0" encoding="utf-8"?>
<!-- Generator: Adobe Illustrator 27.0.0, SVG Export Plug-In . SVG Version: 6.00 Build 0)  -->
<svg version="1.1" id="Layer_1" xmlns="http://www.w3.org/2000/svg" xmlns:xlink="http://www.w3.org/1999/xlink" x="0px" y="0px"
	 viewBox="0 0 144 144" style="enable-background:new 0 0 144 144;" xml:space="preserve">
<style type="text/css">
	.st0{fill:#D84040;}
	.st1{clip-path:url(#SVGID_00000104677317303832479250000001405386780573365174_);}
	.st2{fill:#979797;}
</style>
<g>
	<g>
		<path class="st0" d="M72.05,5.97c17.12,0,33.36,6.55,45.73,18.45c12.4,11.93,19.57,27.96,20.2,45.16
			c1.34,36.38-27.18,67.07-63.56,68.4c-0.82,0.03-1.65,0.05-2.47,0.05c-17.12,0-33.36-6.55-45.73-18.45
			c-12.4-11.92-19.57-27.96-20.2-45.16C4.68,38.04,33.2,7.36,69.58,6.02C70.4,5.99,71.23,5.97,72.05,5.97L72.05,5.97 M72.05,0
			c-0.89,0-1.79,0.02-2.69,0.05C29.62,1.51-1.41,34.9,0.05,74.64C1.47,113.48,33.41,144,71.95,144c0.89,0,1.79-0.02,2.69-0.05
			c39.74-1.46,70.77-34.86,69.31-74.59C142.53,30.52,110.59,0,72.05,0L72.05,0z"/>
	</g>
	<g>
		<g>
			<defs>
				<circle id="SVGID_1_" cx="72" cy="72" r="72"/>
			</defs>
			<clipPath id="SVGID_00000030451954226701560590000009358555832372911265_">
				<use xlink:href="#SVGID_1_"  style="overflow:visible;"/>
			</clipPath>
			<g style="clip-path:url(#SVGID_00000030451954226701560590000009358555832372911265_);">
				<path class="st2" d="M95.88,54.71c-1.68,0-2.92,0.46-3.82,1.03c-0.16-1.6-0.87-3.1-2.04-4.28c-1.33-1.32-3.1-2.05-4.98-2.05
					c-1.65,0-3.18,0.57-4.38,1.53c-0.88-2.89-3.57-5-6.75-5c-1.51,0-2.92,0.48-4.07,1.3V24.26c-0.13-3.79-3.22-6.76-7.04-6.76
					c-1.87,0-3.65,0.73-5,2.08c-1.32,1.33-2.05,3.1-2.05,4.98v45.63l-11.61-11.1L44.04,59c-1.71-1.44-3.47-2.17-5.24-2.17
					c-2.3,0-3.81,1.25-4.31,1.67c-1.93,1.6-2.95,3.43-3.03,5.48c-0.03,2.22,1.14,3.97,1.85,4.82l12.32,14.46
					c0.97,1.64,1.78,4.4,2.64,7.32c1.16,3.93,2.35,7.99,4.26,10.61c3.35,4.6,3.55,5.29,4.37,8.21c0.15,0.55,0.33,1.17,0.55,1.9
					c0.37,1.24,0.56,2.43,0.75,4.85c0,1.09,0,24.99,0,24.99v1.49h41.12l-0.04-2.91c-0.09-5.88-0.22-27.3-0.22-28.27
					c0-0.56,0.01-1.11,0.04-1.66c0.25-5.43,1.14-9.5,2.81-15.57c0.74-2.68,1.12-5.35,1.12-7.91V61.72
					C103.02,57.59,100.08,54.71,95.88,54.71z M100.03,86.3c0,2.3-0.34,4.69-1.01,7.11c-1.73,6.29-2.66,10.52-2.92,16.23
					c-0.03,0.6-0.05,1.2-0.05,1.81c0,0.98,0.13,22.31,0.22,28.2H61.18c0-3.32,0-23.07,0-23.56v-0.11c-0.21-2.7-0.42-4.04-0.87-5.53
					c-0.21-0.71-0.38-1.32-0.54-1.86c-0.94-3.33-1.29-4.3-4.83-9.16c-1.6-2.2-2.72-6.01-3.81-9.69c-0.93-3.17-1.82-6.17-3.01-8.13
					L35.6,66.88c-0.43-0.53-1.16-1.6-1.15-2.83c0.04-1.14,0.68-2.21,1.95-3.25c0.35-0.29,1.18-0.98,2.4-0.98
					c1.04,0,2.16,0.49,3.28,1.44l16.66,15.91V24.55c0-1.08,0.42-2.1,1.18-2.86c0.78-0.78,1.81-1.2,2.89-1.2
					c2.2,0,3.98,1.7,4.05,3.82v38.77c0,0.83,0.67,1.49,1.49,1.49s1.49-0.67,1.49-1.49l0,0L69.85,53c0-2.24,1.82-4.07,4.06-4.07
					s4.07,1.82,4.07,4.07l0.01,10.07v0.01c0,0.83,0.67,1.5,1.5,1.5s1.5-0.67,1.5-1.5v-0.01l0.01-6.6c0-2.24,1.82-4.06,4.06-4.06
					c1.08,0,2.1,0.42,2.86,1.17c0.78,0.78,1.2,1.81,1.2,2.89v6.61l0,0l0,0c0,0.83,0.67,1.5,1.5,1.5s1.5-0.67,1.5-1.5
					c0-0.02-0.01-0.04-0.01-0.06v-1.29c0-1.21,0.33-2.23,0.94-2.93c0.44-0.5,1.29-1.1,2.84-1.1c2.56,0,4.15,1.54,4.15,4.03
					L100.03,86.3L100.03,86.3z"/>
				<path class="st2" d="M95.66,121.1H57.55c-1.17,0-2.12,0.95-2.12,2.12v28.18h46.59v-23.95C102.02,123.95,99.17,121.1,95.66,121.1
					z M91.37,134.93c-1.75,0-3.18-1.42-3.18-3.18s1.42-3.18,3.18-3.18s3.18,1.42,3.18,3.18S93.12,134.93,91.37,134.93z"/>
				<g>
					<rect x="36.21" y="4.18" class="st2" width="3.74" height="45.09"/>
				</g>
				<polygon class="st2" points="46.9,38.42 38.07,47.91 29.25,38.42 26.74,40.93 38.07,53.12 49.41,40.93 				"/>
			</g>
		</g>
	</g>
</g>
</svg>
