<?xml version="1.0" encoding="utf-8"?>
<!-- Generator: Adobe Illustrator 27.0.0, SVG Export Plug-In . SVG Version: 6.00 Build 0)  -->
<svg version="1.1" id="Layer_1" xmlns="http://www.w3.org/2000/svg" xmlns:xlink="http://www.w3.org/1999/xlink" x="0px" y="0px"
	 viewBox="0 0 144 144" style="enable-background:new 0 0 144 144;" xml:space="preserve">
<style type="text/css">
	.st0{fill:#E0FFE3;}
	.st1{clip-path:url(#SVGID_00000093166438188402642100000003202048897029982910_);}
	.st2{fill:#979797;}
</style>
<g>
	<g>
		<path class="st0" d="M72,5.98c36.41,0,66.02,29.62,66.02,66.02S108.41,138.02,72,138.02S5.98,108.41,5.98,72S35.59,5.98,72,5.98
			 M72,0C32.24,0,0,32.24,0,72s32.24,72,72,72s72-32.24,72-72S111.76,0,72,0L72,0z"/>
	</g>
	<g>
		<g>
			<g>
				<defs>
					<circle id="SVGID_1_" cx="72" cy="72" r="72"/>
				</defs>
				<clipPath id="SVGID_00000003071496149777903130000002433693618185008018_">
					<use xlink:href="#SVGID_1_"  style="overflow:visible;"/>
				</clipPath>
				<g style="clip-path:url(#SVGID_00000003071496149777903130000002433693618185008018_);">
					<path class="st2" d="M131.4,56.74c-0.01-1.45-0.57-2.81-1.59-3.83c-0.68-0.68-1.51-1.15-2.38-1.39
						c0.62-0.9,0.95-1.96,0.96-3.09c-0.01-1.5-0.6-2.87-1.69-3.92c-2.12-2.01-5.57-1.92-7.7,0.21l0,0c-0.25-0.82-0.71-1.6-1.37-2.26
						c-1.02-1.02-2.39-1.59-3.86-1.59c-1.45,0.01-2.8,0.57-3.83,1.59L92.1,60.31l-1.1-1.1c-2.17-2.17-5.71-2.17-7.88,0l-5.27,5.27
						c-1.56,1.56-2.88,3.32-3.94,5.25l-1.43,2.61c-1.42,2.61-2.89,5.31-3.26,7.67c-0.62,3.98-0.84,4.37-1.89,6.23l-0.09,0.16
						c-0.19,0.33-0.39,0.7-0.63,1.14c-0.43,0.79-0.92,1.47-2.03,2.77c-0.65,0.66-6.6,6.61-6.6,6.61l-1.01,1.01h4.05
						c1.79-1.79,5.33-5.34,5.63-5.64l0.07-0.08c1.27-1.49,1.88-2.33,2.41-3.32c0.23-0.42,0.43-0.78,0.61-1.1l0.09-0.15
						c1.2-2.14,1.54-2.88,2.22-7.19c0.29-1.87,1.64-4.35,2.95-6.74l1.42-2.6c0.93-1.69,2.09-3.24,3.45-4.6l5.27-5.27
						c1.06-1.06,2.77-1.06,3.83,0l1.1,1.1l-5.11,5.11l0.01,0.01c-0.5,0.56-0.49,1.42,0.05,1.97c0.54,0.54,1.4,0.55,1.97,0.05
						L87,69.49l0.05-0.05l0,0l0,0l24.93-24.92c0.48-0.48,1.13-0.75,1.8-0.75c0.7,0,1.35,0.27,1.83,0.75
						c0.98,0.98,1.02,2.54,0.12,3.5L96.39,67.33l0,0l0,0l0,0l0,0c-0.56,0.56-0.56,1.46,0,2.02s1.46,0.56,2.02,0l0,0l0,0l0,0l0,0
						l19.22-19.2c0.04-0.04,0.08-0.08,0.14-0.14l3.26-3.26c1.04-1.04,2.7-1.11,3.7-0.16c0.51,0.49,0.8,1.15,0.8,1.84
						c0,0.7-0.27,1.35-0.75,1.83l-22.72,22.72l0,0c-0.56,0.56-0.56,1.46,0,2.02s1.46,0.56,2.02,0l0,0l0,0l0,0l0,0l20.08-20.07
						c1-1,2.63-1,3.63,0c0.48,0.48,0.75,1.13,0.75,1.8c0,0.7-0.27,1.35-0.75,1.83l-20.08,20.08l0,0c-0.56,0.56-0.56,1.47,0,2.02
						c0.56,0.56,1.46,0.56,2.02,0l0,0l0,0l0,0l0,0l11.7-11.69c0.56-0.56,1.16-0.87,1.74-0.91c0.59-0.04,1.17,0.22,1.72,0.78
						c1.16,1.16,1.18,2.53,0.06,3.65l-23.9,23.9c-1.15,1.15-2.51,2.17-4.06,3.05c-4.1,2.33-6.75,4.03-9.8,6.82
						c-0.32,0.3-0.64,0.6-0.96,0.91c-0.69,0.69-6.36,6.59-7.85,8.14l0.04,4.1l1.71-1.78c0.83-0.87,7.42-7.72,8.12-8.42
						c0.28-0.28,0.56-0.55,0.86-0.82c2.86-2.61,5.37-4.22,9.29-6.44c1.77-1,3.34-2.18,4.67-3.51l23.9-23.9
						c2.25-2.25,2.23-5.42-0.06-7.71c-0.68-0.68-1.37-1.09-2.01-1.33l4.9-4.9C130.83,59.58,131.4,58.22,131.4,56.74z"/>
					<g>
						<path class="st2" d="M19.09,65.5c-0.64,0.24-1.33,0.65-2.01,1.33c-2.29,2.29-2.31,5.45-0.06,7.71l23.9,23.9
							c1.33,1.33,2.9,2.51,4.67,3.51l0,0l2.1-2.1c-0.23-0.13-0.45-0.26-0.69-0.4c-1.55-0.88-2.91-1.9-4.06-3.05l-23.9-23.9
							c-1.12-1.12-1.1-2.49,0.06-3.65c0.56-0.56,1.14-0.82,1.72-0.78s1.18,0.35,1.74,0.91l11.7,11.69l0,0l0,0l0,0l0,0
							c0.56,0.56,1.46,0.56,2.02,0s0.56-1.46,0-2.02l0,0L16.22,58.57c-0.48-0.48-0.75-1.13-0.75-1.83c0-0.67,0.27-1.32,0.75-1.8
							c1-1,2.63-1,3.63,0l20.08,20.07l0,0l0,0l0,0l0,0c0.56,0.56,1.46,0.56,2.02,0s0.56-1.46,0-2.02l0,0L19.23,50.27
							c-0.48-0.48-0.75-1.13-0.75-1.83s0.29-1.36,0.8-1.84c1-0.95,2.66-0.88,3.7,0.16l3.26,3.26c0.05,0.06,0.1,0.1,0.14,0.14
							l19.22,19.2l0,0l0,0l0,0l0,0c0.56,0.56,1.46,0.56,2.02,0s0.56-1.46,0-2.02l0,0l0,0l0,0l0,0L28.28,48
							c-0.9-0.97-0.86-2.52,0.12-3.5c0.48-0.48,1.13-0.75,1.83-0.75c0.67,0,1.32,0.27,1.8,0.75l24.93,24.92l0,0l0,0l0.05,0.05
							l0.01-0.01c0.56,0.5,1.42,0.49,1.97-0.05c0.54-0.54,0.55-1.4,0.05-1.97l0.01-0.01l-5.11-5.11l1.1-1.1
							c1.06-1.06,2.77-1.06,3.83,0l5.27,5.27c1.36,1.36,2.53,2.91,3.45,4.6l0.76,1.38c0.33-0.63,0.67-1.25,1-1.87l0.61-1.12
							c-1.03-1.84-2.31-3.53-3.8-5.02l-5.27-5.27c-2.17-2.17-5.71-2.17-7.88,0l-1.1,1.1L34.05,42.47c-1.02-1.02-2.38-1.59-3.83-1.59
							c-1.47,0.01-2.84,0.57-3.86,1.59c-0.66,0.66-1.11,1.43-1.37,2.26l0,0c-2.13-2.13-5.58-2.22-7.7-0.21
							c-1.1,1.05-1.68,2.43-1.69,3.92c0.01,1.13,0.34,2.2,0.96,3.09c-0.87,0.24-1.7,0.71-2.38,1.39c-1.02,1.02-1.58,2.38-1.59,3.83
							c0.01,1.47,0.57,2.84,1.59,3.86L19.09,65.5z"/>
					</g>
					<path class="st2" d="M81,112.53L61.61,93.14c-0.6-0.6-1.56-0.6-2.15,0L12.6,140l23.7,23.7L81,119
						C82.79,117.21,82.79,114.32,81,112.53z M75.27,117.63c-1.03,1.03-2.71,1.03-3.74,0s-1.03-2.71,0-3.74s2.71-1.03,3.74,0
						S76.31,116.6,75.27,117.63z"/>
					<g>
						<path class="st2" d="M91.55,111.03c-0.26,0.24-0.5,0.47-0.74,0.71c-0.39,0.39-2.84,2.93-4.97,5.14
							c-0.24,1.75-1.03,3.38-2.3,4.65l-9,9l33.17,33.17l23.7-23.7l-33.57-33.57C95.39,107.9,93.57,109.19,91.55,111.03z"/>
					</g>
				</g>
			</g>
		</g>
	</g>
</g>
</svg>
