<?xml version="1.0" encoding="utf-8"?>
<!-- Generator: Adobe Illustrator 27.0.0, SVG Export Plug-In . SVG Version: 6.00 Build 0)  -->
<svg version="1.1" id="Layer_1" xmlns="http://www.w3.org/2000/svg" xmlns:xlink="http://www.w3.org/1999/xlink" x="0px" y="0px"
	 viewBox="0 0 144 144" style="enable-background:new 0 0 144 144;" xml:space="preserve">
<style type="text/css">
	.st0{fill:#D5FDFF;}
	.st1{clip-path:url(#SVGID_00000133527233185497326760000015776547830256240319_);}
	.st2{fill:#C6C6C6;}
	.st3{fill:#E6E7E8;}
</style>
<g>
	<g>
		<path class="st0" d="M71.99-0.02v5.98c27.65,0,52.58,17.47,62.05,43.46c6.03,16.57,5.25,34.5-2.2,50.48s-20.68,28.11-37.26,34.14
			c-7.29,2.65-14.89,4-22.58,4c-27.65,0-52.59-17.47-62.05-43.46c-6.03-16.57-5.25-34.5,2.2-50.48s20.7-28.11,37.27-34.14
			c7.29-2.66,14.89-4,22.58-4L71.99-0.02 M71.99-0.02c-8.18,0-16.49,1.4-24.62,4.36C10.01,17.94-9.26,59.26,4.34,96.63
			c10.64,29.24,38.25,47.39,67.66,47.39c8.18,0,16.49-1.4,24.62-4.36c37.37-13.6,56.63-54.92,43.03-92.28
			C129.02,18.14,101.4-0.02,71.99-0.02L71.99-0.02z"/>
	</g>
	<g>
		<g>
			<defs>
				<circle id="SVGID_1_" cx="72" cy="72" r="72"/>
			</defs>
			<clipPath id="SVGID_00000142156254041476720930000000644240939864558480_">
				<use xlink:href="#SVGID_1_"  style="overflow:visible;"/>
			</clipPath>
			<g style="clip-path:url(#SVGID_00000142156254041476720930000000644240939864558480_);">
				<g>
					<path class="st2" d="M106.77,118.75c-0.05,0.02-0.11,0.04-0.16,0.05c-0.74,0.2-1.51-0.22-1.73-0.96
						c-0.11-0.31-0.97-2.5-1.67-4.27c-1.45-3.68-1.78-4.52-1.85-4.74c-1.19-4.18-3.19-11.18-0.27-18.58
						c1.73-4.65-0.9-13.06-2.83-19.2l-0.08-0.31L96.56,59l0.62-15.83c-0.04-0.57-0.45-1.46-1.07-1.95
						c-0.61-0.48-1.17-0.58-1.94-0.36c-2.22,0.63-3.7,3.17-4.03,6.97c-0.46,5.39-1.84,21.56-1.84,21.56
						c-0.08,0.88-0.57,1.69-1.31,2.16c-0.43,0.28-10.69,7.18-2.84,26.58c0.29,0.73-0.03,1.56-0.78,1.85
						c-0.73,0.29-1.55-0.06-1.85-0.78c-8.71-21.55,3.43-29.7,3.95-30.03c0.01-0.01,1.39-16.18,1.85-21.58
						c0.43-5.04,2.65-8.5,6.09-9.46c1.65-0.46,3.15-0.17,4.47,0.87c1.22,0.96,2.1,2.66,2.15,4.13v0.1L99.4,58.99l1.58,11.25
						c2.04,6.53,4.83,15.46,2.76,21.04c-2.58,6.53-0.74,12.95,0.35,16.78c0.09,0.26,1.01,2.6,1.76,4.48
						c1.53,3.86,1.71,4.33,1.76,4.52C107.79,117.76,107.42,118.48,106.77,118.75z"/>
				</g>
				<g>
					<path class="st2" d="M73.82,131.25l-2.77,0.64l1.38-0.32l-1.33,0.48c-0.18-0.5-4.68-12.41-5.55-14.28
						c-2.49-5.38-5.04-9.1-9.16-14.5c-1.69-2.21-3.04-4.53-4.02-6.89L31.58,55.49c-1.21-2.99,0.31-6.78,3.19-7.95
						c2.7-1.1,6.26,0.24,7.66,2.86l9.34,15.43L37.11,34.16c-0.65-1.6-0.57-3.42,0.2-5.04c0.74-1.55,2.02-2.7,3.53-3.17
						c2.82-0.86,6.42,0.91,7.56,3.71l13.17,29.38l-12.8-34.68c-1.38-3.38,0.05-6.98,3.33-8.31c2.75-1.12,6.54,0.04,8.12,3.92
						l13.39,36.9L63.9,24.88c-1.48-3.75,0.47-7.13,3.24-8.26c2.76-1.12,6.58-0.16,8.2,3.84l0.04,0.11L88.8,63.89l-2.71,0.84
						l-13.4-43.26c-0.99-2.38-3.01-2.82-4.48-2.23c-1.5,0.61-2.55,2.4-1.65,4.63L66.61,24l10.81,36.64c0.36,1.22-0.25,2.51-1.42,3
						c-0.62,0.24-1.34,0.26-1.96-0.01c-0.62-0.27-1.11-0.79-1.35-1.42L57.56,21c-0.92-2.27-2.96-2.9-4.4-2.31
						c-1.55,0.63-2.65,2.43-1.75,4.66l15.22,41.49c0.46,1.26-0.17,2.67-1.4,3.17c-0.01,0-0.02,0.01-0.03,0.01
						c-1.24,0.48-2.64-0.09-3.19-1.3L45.79,30.79c-0.62-1.51-2.69-2.56-4.12-2.12c-0.74,0.23-1.4,0.84-1.8,1.67
						c-0.42,0.89-0.48,1.9-0.16,2.7l16.6,36.8c0.26,0.57,0.27,1.23,0.04,1.82c-0.23,0.58-0.7,1.05-1.28,1.28c0,0,0,0-0.01,0
						c-1.06,0.42-2.25,0.03-2.84-0.95L39.93,51.75c-0.69-1.33-2.76-2.13-4.09-1.58c-1.41,0.57-2.23,2.68-1.65,4.2l20.78,40.87
						c0.88,2.15,2.12,4.27,3.67,6.3c4.25,5.57,6.88,9.42,9.48,15.03C68.84,118.11,73.7,130.75,73.82,131.25z"/>
				</g>
				<g>
					<path class="st3" d="M113.53,83.69c-0.25,0.1-0.53,0.13-0.82,0.05c-0.7-0.18-1.12-0.89-0.94-1.59
						c2.19-8.55,1.59-17.4-1.74-25.6c-0.45-1.11-0.95-2.21-1.49-3.26c-0.33-0.64-0.07-1.43,0.57-1.76c0.65-0.33,1.43-0.07,1.76,0.57
						c0.58,1.13,1.11,2.29,1.59,3.47c3.54,8.72,4.18,18.14,1.85,27.23C114.2,83.22,113.9,83.54,113.53,83.69z"/>
				</g>
				<g>
					<path class="st3" d="M47.9,107.7c-0.4,0.16-0.87,0.12-1.25-0.15c-6.75-4.8-11.97-11.42-15.1-19.13
						c-1.74-4.28-2.78-8.76-3.11-13.32c-0.05-0.72,0.49-1.35,1.21-1.4c0.72-0.05,1.35,0.49,1.4,1.21c0.31,4.29,1.29,8.5,2.92,12.53
						c2.94,7.25,7.85,13.47,14.2,17.98c0.59,0.42,0.73,1.24,0.31,1.82C48.33,107.46,48.13,107.61,47.9,107.7z"/>
				</g>
				<path class="st2" d="M109.6,112.55c-0.44-1.08-1.68-1.61-2.76-1.17l-35.32,14.34c-3.25,1.32-4.82,5.03-3.5,8.28l33.06,81.41
					l43.16-17.53L109.6,112.55z M80.7,136.92c-1.63,0.66-3.48-0.12-4.14-1.75s0.12-3.48,1.75-4.14s3.48,0.12,4.14,1.75
					S82.33,136.26,80.7,136.92z"/>
			</g>
		</g>
	</g>
</g>
</svg>
