<?xml version="1.0" encoding="utf-8"?>
<!-- Generator: Adobe Illustrator 27.0.0, SVG Export Plug-In . SVG Version: 6.00 Build 0)  -->
<svg version="1.1" id="Layer_1" xmlns="http://www.w3.org/2000/svg" xmlns:xlink="http://www.w3.org/1999/xlink" x="0px" y="0px"
	 viewBox="0 0 144 144" style="enable-background:new 0 0 144 144;" xml:space="preserve">
<style type="text/css">
	.st0{fill:#7FE9EE;}
	.st1{clip-path:url(#SVGID_00000132058867101476087410000001068633949622481303_);}
	.st2{opacity:0.7;fill:#F4F4F4;}
	.st3{fill:#232426;}
	.st4{fill:#F4F4F4;}
</style>
<g>
	<g>
		<path class="st0" d="M72,0v6c27.7,0,52.6,17.5,62,43.5c6,16.6,5.2,34.5-2.2,50.5c-7.4,16-20.7,28.1-37.3,34.1
			c-7.3,2.6-14.9,4-22.6,4c-27.7,0-52.6-17.5-62.1-43.5C3.8,78,4.5,60.1,12,44.1S32.9,16,49.4,10C56.7,7.3,64.3,6,72,6V0 M72,0
			c-8.2,0-16.5,1.4-24.6,4.4C10,17.9-9.3,59.3,4.3,96.6C15,125.9,42.6,144,72,144c8.2,0,16.5-1.4,24.6-4.4
			c37.4-13.6,56.6-54.9,43-92.3C129,18.1,101.4,0,72,0L72,0z"/>
	</g>
	<g>
		<g>
			<g>
				<g>
					<defs>
						<circle id="SVGID_1_" cx="72" cy="72" r="72"/>
					</defs>
					<clipPath id="SVGID_00000110447674864105983820000000489627976941984434_">
						<use xlink:href="#SVGID_1_"  style="overflow:visible;"/>
					</clipPath>
					<g style="clip-path:url(#SVGID_00000110447674864105983820000000489627976941984434_);">
						<path class="st2" d="M72.4,129.5c-1.3-3.6-4.2-11-4.9-12.6c-2.6-5.5-5.2-9.3-9.4-14.9c-1.6-2.1-2.8-4.2-3.8-6.4l-0.1-0.1
							L33.5,54.7c-0.7-1.9,0.3-4.5,2.1-5.3c0.4-0.2,0.8-0.2,1.3-0.2c1.6,0,3.2,0.9,3.9,2.2l0.1,0.1l9.3,15.4l3.5-1.9L39.1,33.3
							c-0.4-1-0.3-2.2,0.2-3.3c0.5-1,1.3-1.8,2.3-2.1c0.3-0.1,0.6-0.1,0.9-0.1c1.7,0,3.6,1.2,4.2,2.7l13.2,29.4l3.7-1.5L50.8,23.7
							c-0.5-1.2-0.5-2.5-0.1-3.6c0.4-1,1.2-1.8,2.3-2.2c0.4-0.2,0.9-0.3,1.4-0.3c1.4,0,3.2,0.8,4.2,3.1L72,57.5l3.8-1.3l-9.7-32.1
							V24c-1.1-2.7,0.3-4.9,2.1-5.7c0.5-0.2,1-0.3,1.5-0.3c0.9,0,3,0.3,4.1,3L85,57l3.9-0.4l0.8-9c0.4-4.2,2-7,4.6-7.7
							c0.3-0.1,0.6-0.1,0.9-0.1c0.6,0,1.2,0.2,1.8,0.7c0.8,0.6,1.4,1.7,1.4,2.6L97.8,59l1.6,11.6v0.2c2,6.3,4.6,14.8,2.8,19.7
							c-2.8,7.1-0.9,13.9,0.3,18v0.1c0.1,0.3,1.2,3,1.8,4.6c0.7,1.8,1.2,3,1.4,3.6h-0.1l-32.7,12.5v-0.1L72.4,129.5z"/>
						<g>
							<path class="st3" d="M106.8,118.8c-0.1,0-0.1,0-0.2,0.1c-0.7,0.2-1.5-0.2-1.7-1c-0.1-0.3-1-2.5-1.7-4.3
								c-1.4-3.7-1.8-4.5-1.8-4.7c-1.2-4.2-3.2-11.2-0.3-18.6c1.7-4.7-0.9-13.1-2.8-19.2l-0.1-0.3L96.6,59l0.6-15.8
								c0-0.6-0.4-1.5-1.1-2c-0.6-0.5-1.2-0.6-1.9-0.4c-2.2,0.6-3.7,3.2-4,7c-0.5,5.4-1.8,21.6-1.8,21.6c-0.1,0.9-0.6,1.7-1.3,2.2
								c-0.4,0.3-10.7,7.2-2.8,26.6c0.3,0.7,0,1.6-0.8,1.8c-0.7,0.3-1.6-0.1-1.8-0.8c-8.7-21.5,3.4-29.7,3.9-30
								c0,0,1.4-16.2,1.8-21.6c0.4-5,2.7-8.5,6.1-9.5c1.7-0.5,3.2-0.2,4.5,0.9c1.2,1,2.1,2.7,2.2,4.1v0.1L99.4,59l1.6,11.3
								c2,6.5,4.8,15.5,2.8,21c-2.6,6.5-0.7,12.9,0.3,16.8c0.1,0.3,1,2.6,1.8,4.5c1.5,3.9,1.7,4.3,1.8,4.5
								C107.8,117.8,107.4,118.5,106.8,118.8z"/>
						</g>
						<g>
							<path class="st3" d="M73.8,131.2l-2.8,0.6l1.4-0.3l-1.3,0.5c-0.2-0.5-4.7-12.4-5.6-14.3c-2.5-5.4-5-9.1-9.2-14.5
								c-1.7-2.2-3-4.5-4-6.9L31.6,55.5c-1.2-3,0.3-6.8,3.2-8c2.7-1.1,6.3,0.2,7.7,2.9l9.3,15.4L37.1,34.2c-0.7-1.6-0.6-3.4,0.2-5
								c0.7-1.5,2-2.7,3.5-3.2c2.8-0.9,6.4,0.9,7.6,3.7L61.6,59L48.8,24.4c-1.4-3.4,0-7,3.3-8.3c2.8-1.1,6.5,0,8.1,3.9l13.4,36.9
								l-9.7-32c-1.5-3.8,0.5-7.1,3.2-8.3c2.8-1.1,6.6-0.2,8.2,3.8v0.1l13.4,43.3L86,64.6L72.7,21.5c-1-2.4-3-2.8-4.5-2.2
								c-1.5,0.6-2.6,2.4-1.7,4.6l0.1,0.1l10.8,36.6c0.4,1.2-0.2,2.5-1.4,3c-0.6,0.2-1.3,0.3-2,0c-0.6-0.3-1.1-0.8-1.3-1.4L57.6,21
								c-0.9-2.3-3-2.9-4.4-2.3c-1.5,0.6-2.7,2.4-1.8,4.7l15.2,41.5c0.5,1.3-0.2,2.7-1.4,3.2l0,0C64,68.6,62.6,68,62,66.8l-16.2-36
								c-0.6-1.5-2.7-2.6-4.1-2.1c-0.7,0.2-1.4,0.8-1.8,1.7c-0.4,0.9-0.5,1.9-0.2,2.7l16.6,36.8c0.3,0.6,0.3,1.2,0,1.8
								c-0.2,0.6-0.7,1.1-1.3,1.3l0,0c-1.1,0.4-2.2,0-2.8-0.9L39.9,51.8c-0.7-1.3-2.8-2.1-4.1-1.6c-1.4,0.6-2.2,2.7-1.7,4.2L55,95.2
								c0.9,2.2,2.1,4.3,3.7,6.3c4.2,5.6,6.9,9.4,9.5,15C68.8,118.1,73.7,130.8,73.8,131.2z"/>
						</g>
						<path class="st3" d="M109.6,112.6c-0.4-1.1-1.7-1.6-2.8-1.2l-35.3,14.3c-3.2,1.3-4.8,5-3.5,8.3l33.1,81.4l43.2-17.5
							L109.6,112.6z M80.7,136.9c-1.6,0.7-3.5-0.1-4.1-1.8s0.1-3.5,1.8-4.1s3.5,0.1,4.1,1.8S82.3,136.3,80.7,136.9z"/>
						<path class="st4" d="M80.7,136.9c-1.6,0.7-3.5-0.1-4.1-1.8s0.1-3.5,1.8-4.1s3.5,0.1,4.1,1.8S82.3,136.3,80.7,136.9z"/>
					</g>
				</g>
			</g>
		</g>
	</g>
</g>
</svg>
