<?xml version="1.0" encoding="utf-8"?>
<!-- Generator: Adobe Illustrator 27.0.0, SVG Export Plug-In . SVG Version: 6.00 Build 0)  -->
<svg version="1.1" id="Layer_1" xmlns="http://www.w3.org/2000/svg" xmlns:xlink="http://www.w3.org/1999/xlink" x="0px" y="0px"
	 viewBox="0 0 144 144" style="enable-background:new 0 0 144 144;" xml:space="preserve">
<style type="text/css">
	.st0{fill:#A5C6C3;}
	.st1{clip-path:url(#SVGID_00000145751179494231832640000004055725980439526552_);}
	.st2{fill:#EDF9F9;}
</style>
<g>
	<g>
		<path class="st0" d="M72,6c36.4,0,66,29.6,66,66s-29.6,66-66,66S6,108.4,6,72S35.6,6,72,6 M72,0C32.2,0,0,32.2,0,72s32.2,72,72,72
			s72-32.2,72-72S111.8,0,72,0L72,0z"/>
	</g>
	<g>
		<g>
			<g>
				<g>
					<g>
						<defs>
							<circle id="SVGID_1_" cx="72" cy="72" r="72"/>
						</defs>
						<clipPath id="SVGID_00000153706664276514263620000015652614879613778352_">
							<use xlink:href="#SVGID_1_"  style="overflow:visible;"/>
						</clipPath>
						<g style="clip-path:url(#SVGID_00000153706664276514263620000015652614879613778352_);">
							<path class="st2" d="M131.4,56.7c0-1.5-0.6-2.8-1.6-3.8c-0.7-0.7-1.5-1.2-2.4-1.4c0.6-0.9,1-2,1-3.1c0-1.5-0.6-2.9-1.7-3.9
								c-2.1-2-5.6-1.9-7.7,0.2l0,0c-0.2-0.8-0.7-1.6-1.4-2.3c-1-1-2.4-1.6-3.9-1.6c-1.4,0-2.8,0.6-3.8,1.6L92.1,60.3L91,59.2
								c-2.2-2.2-5.7-2.2-7.9,0l-5.3,5.3c-1.6,1.6-2.9,3.3-3.9,5.2l-1.4,2.6c-1.4,2.6-2.9,5.3-3.3,7.7c-0.6,4-0.8,4.4-1.9,6.2
								l-0.1,0.2c-0.2,0.3-0.4,0.7-0.6,1.1c-0.4,0.8-0.9,1.5-2,2.8C63.9,91,58,96.9,58,96.9l-1,1h4c1.8-1.8,5.3-5.3,5.6-5.6l0.1-0.1
								c1.3-1.5,1.9-2.3,2.4-3.3c0.2-0.4,0.4-0.8,0.6-1.1l0.1-0.2c1.2-2.1,1.5-2.9,2.2-7.2c0.3-1.9,1.6-4.3,2.9-6.7l1.4-2.6
								c0.9-1.7,2.1-3.2,3.4-4.6l5.3-5.3c1.1-1.1,2.8-1.1,3.8,0l1.1,1.1L85,67.5l0,0c-0.5,0.6-0.5,1.4,0.1,2c0.5,0.5,1.4,0.6,2,0.1
								l0,0l0.1-0.1l0,0l0,0l24.8-25c0.5-0.5,1.1-0.8,1.8-0.8c0.7,0,1.3,0.3,1.8,0.8c1,1,1,2.5,0.1,3.5L96.4,67.3l0,0l0,0l0,0l0,0
								c-0.6,0.6-0.6,1.5,0,2s1.5,0.6,2,0l0,0l0,0l0,0l0,0l19.2-19.2l0.1-0.1l3.3-3.3c1-1,2.7-1.1,3.7-0.2c0.5,0.5,0.8,1.2,0.8,1.8
								c0,0.7-0.3,1.3-0.8,1.8L102.1,73l0,0c-0.6,0.6-0.6,1.5,0,2s1.5,0.6,2,0l0,0l0,0l0,0l0,0l20.1-20.1c1-1,2.6-1,3.6,0
								c0.5,0.5,0.8,1.1,0.8,1.8s-0.3,1.3-0.8,1.8l-20.1,20.1l0,0c-0.6,0.6-0.6,1.5,0,2c0.6,0.6,1.5,0.6,2,0l0,0l0,0l0,0l0,0
								L121.4,69c0.6-0.6,1.2-0.9,1.7-0.9c0.6,0,1.2,0.2,1.7,0.8c1.2,1.2,1.2,2.5,0.1,3.7L101,96.4c-1.2,1.2-2.5,2.2-4.1,3.1
								c-4.1,2.3-6.8,4-9.8,6.8c-0.3,0.3-0.6,0.6-1,0.9c-0.7,0.7-6.4,6.6-7.8,8.1v4.1l1.7-1.8c0.8-0.9,7.4-7.7,8.1-8.4
								c0.3-0.3,0.6-0.6,0.9-0.8c2.9-2.6,5.4-4.2,9.3-6.4c1.8-1,3.3-2.2,4.7-3.5l24-24c2.2-2.2,2.2-5.4-0.1-7.7
								c-0.7-0.7-1.4-1.1-2-1.3l4.9-4.9C130.8,59.6,131.4,58.2,131.4,56.7z"/>
							<g>
								<path class="st2" d="M19.1,65.5c-0.6,0.2-1.3,0.7-2,1.3c-2.3,2.3-2.3,5.4-0.1,7.7l23.9,23.9c1.3,1.3,2.9,2.5,4.7,3.5l0,0
									l2.1-2.1c-0.2-0.1-0.5-0.3-0.7-0.4c-1.5-0.9-2.9-1.9-4.1-3.1L19,72.5c-1.1-1.1-1.1-2.5,0.1-3.7c0.6-0.6,1.1-0.8,1.7-0.8
									s1.2,0.3,1.7,0.9l11.7,11.7l0,0l0,0l0,0l0,0c0.6,0.6,1.5,0.6,2,0s0.6-1.5,0-2l0,0l-20-20c-0.5-0.5-0.8-1.1-0.8-1.8
									s0.3-1.3,0.8-1.8c1-1,2.6-1,3.6,0l20.1,20l0,0l0,0l0,0l0,0c0.6,0.6,1.5,0.6,2,0s0.6-1.5,0-2l0,0L19.2,50.3
									c-0.5-0.5-0.8-1.1-0.8-1.8s0.3-1.4,0.8-1.8c1-1,2.7-0.9,3.7,0.2l3.3,3.3c0,0.1,0.1,0.1,0.1,0.1l19.2,19.2l0,0l0,0l0,0l0,0
									c0.6,0.6,1.5,0.6,2,0s0.6-1.5,0-2l0,0l0,0l0,0l0,0L28.3,48c-0.9-1-0.9-2.5,0.1-3.5c0.5-0.5,1.1-0.8,1.8-0.8
									c0.7,0,1.3,0.3,1.8,0.8l25,24.9l0,0l0,0v0.1l0,0c0.6,0.5,1.4,0.5,2-0.1c0.5-0.5,0.5-1.4,0-2l0,0l-5.1-5.1l1.1-1.1
									c1.1-1.1,2.8-1.1,3.8,0l5.3,5.3c1.4,1.4,2.5,2.9,3.4,4.6l0.8,1.4c0.3-0.6,0.7-1.2,1-1.9l0.6-1.1c-1-1.8-2.3-3.5-3.8-5
									l-5.3-5.3c-2.2-2.2-5.7-2.2-7.9,0l-1.1,1.1L34,42.5c-1-1-2.4-1.6-3.8-1.6c-1.5,0-2.8,0.6-3.9,1.6c-0.7,0.7-1.1,1.4-1.4,2.3
									l0,0c-2.1-2.1-5.6-2.2-7.7-0.2c-1.1,1-1.7,2.4-1.7,3.9c0,1.1,0.3,2.2,1,3.1c-0.9,0.2-1.7,0.7-2.4,1.4c-1,1-1.6,2.4-1.6,3.8
									c0,1.5,0.6,2.8,1.6,3.9L19.1,65.5z"/>
							</g>
							<path class="st2" d="M81,112.5L61.6,93.1c-0.6-0.6-1.6-0.6-2.2,0L12.6,140l23.7,23.7L81,119C82.8,117.2,82.8,114.3,81,112.5z
								 M75.3,117.6c-1,1-2.7,1-3.7,0s-1-2.7,0-3.7s2.7-1,3.7,0S76.3,116.6,75.3,117.6z"/>
							<g>
								<path class="st2" d="M91.6,111c-0.3,0.2-0.5,0.5-0.7,0.7c-0.4,0.4-2.8,2.9-5,5.1c-0.2,1.8-1,3.4-2.3,4.7l-9,9l33.2,33.2
									l23.7-23.7l-33.6-33.6C95.4,107.9,93.6,109.2,91.6,111z"/>
							</g>
						</g>
					</g>
				</g>
			</g>
		</g>
	</g>
</g>
</svg>
