<?xml version="1.0" encoding="utf-8"?>
<!-- Generator: Adobe Illustrator 27.0.0, SVG Export Plug-In . SVG Version: 6.00 Build 0)  -->
<svg version="1.1" id="Layer_1" xmlns="http://www.w3.org/2000/svg" xmlns:xlink="http://www.w3.org/1999/xlink" x="0px" y="0px"
	 viewBox="0 0 312 202" style="enable-background:new 0 0 312 202;" xml:space="preserve">
<style type="text/css">
	.st0{fill:#201F28;}
	.st1{fill:#EEFFFF;}
	.st2{fill:#FFFFFF;}
	.st3{fill:#D5FDFF;}
</style>
<g>
	<path class="st0" d="M51.34,69.42c-0.18-1.54-0.71-3.04-1.58-4.48c-0.84-1.39-2.07-2.71-3.65-3.93c-1.1-0.85-2.43-1.61-3.97-2.28
		c0.95-0.21,1.88-0.55,2.75-1c1.12-0.57,2.12-1.36,2.98-2.36c0.8-0.93,1.42-1.98,1.82-3.11c0.38-1.07,0.61-2.19,0.67-3.34
		c0.06-1.18-0.09-2.32-0.43-3.4c-0.37-1.13-0.96-2.13-1.7-2.9c-0.91-1.04-2.06-1.93-3.43-2.66c-1.27-0.68-2.63-1.22-4.04-1.61
		c-1.39-0.39-2.79-0.64-4.17-0.75c-0.58-0.05-1.14-0.07-1.66-0.07c-0.74,0-1.44,0.05-2.08,0.14c-2.67,0.38-5.11,1.1-7.25,2.14
		c-2.13,1.05-3.9,2.47-5.57,3.89c-1.26,1.07-6.74,5.83-8.3,7.36c-1.58,1.56-2.83,3.33-3.72,5.26c-0.88,1.92-1.43,3.96-1.65,6.08
		c-0.22,2.34-0.14,4.24,0.24,5.79c0.38,1.55,0.93,2.85,1.65,3.86c0.75,1.05,1.63,1.86,2.63,2.39c0.81,0.43,1.55,0.75,2.17,0.95
		c0.03,0.01,0.05,0.02,0.08,0.03l-3.11,2.74c-0.73,0.53-1.33,1.11-1.77,1.73c-1.04,1.4-1.67,2.87-1.86,4.37
		c-0.19,1.48-0.03,2.93,0.48,4.3c0.48,1.32,1.22,2.55,2.2,3.65c0.93,1.05,2.01,1.97,3.19,2.72c1.29,0.84,2.92,1.47,4.99,1.91
		c0.91,0.19,1.96,0.29,3.12,0.29c1.43,0,3.1-0.15,4.93-0.43c1.5-0.21,3.17-0.7,4.98-1.45c1.8-0.74,3.56-1.76,5.22-3.01
		c1.68-1.26,7.1-5.57,8.08-6.52c1.52-1.47,3.42-3.65,4.75-5.47c1.37-1.88,2.29-4.05,2.75-6.44C51.43,72.38,51.51,70.91,51.34,69.42z
		"/>
	<path class="st0" d="M138.41,38.78c-1.35-2.98-3.21-5.52-5.52-7.54c-2.31-2.03-5.06-3.53-8.17-4.47c-2.04-0.62-4.19-0.93-6.4-0.93
		c-1.16,0-2.36,0.09-3.56,0.26c-3.47,0.49-6.77,1.64-9.83,3.43c-3.02,1.77-14.14,11.5-16.25,13.93c-2.27,2.6-4.07,5.59-5.36,8.86
		c-1.3,3.29-1.95,6.74-1.95,10.27c0,3.56,0.67,6.87,2,9.84c1.32,2.98,3.18,5.53,5.53,7.59c2.34,2.05,5.1,3.56,8.22,4.47
		c2.01,0.59,4.14,0.89,6.32,0.89c1.18,0,2.4-0.09,3.62-0.26c3.46-0.49,6.76-1.63,9.82-3.39c3.03-1.75,14.13-11.47,16.24-13.95
		c2.23-2.63,4.03-5.61,5.34-8.87c1.32-3.3,1.99-6.76,1.99-10.29C140.45,45.07,139.76,41.76,138.41,38.78z M113.94,59.92
		c-0.04,0-0.09,0.01-0.14,0.01c-0.62,0-1.23-0.09-1.81-0.27c-0.87-0.27-1.61-0.69-2.23-1.28c-0.66-0.62-1.17-1.33-1.55-2.19
		c-0.37-0.82-0.56-1.75-0.57-2.77c0-0.66,0.09-1.31,0.24-1.97c0.04,0,0.08-0.01,0.12-0.01c0.61,0,1.21,0.09,1.77,0.27
		c0.87,0.28,1.65,0.72,2.3,1.29c0.65,0.58,1.16,1.28,1.54,2.13c0.39,0.87,0.57,1.79,0.57,2.83
		C114.19,58.61,114.1,59.27,113.94,59.92z"/>
	<path class="st0" d="M216.51,84.63c-1.35-2.98-3.21-5.52-5.52-7.54c-2.31-2.03-5.06-3.53-8.17-4.47c-2.04-0.62-4.19-0.93-6.4-0.93
		c-1.16,0-2.36,0.09-3.56,0.26c-3.47,0.49-6.77,1.64-9.83,3.43c-3.02,1.77-14.14,11.5-16.25,13.93c-2.27,2.6-4.07,5.59-5.36,8.86
		c-1.3,3.29-1.95,6.74-1.95,10.27c0,3.56,0.67,6.87,2,9.84c1.32,2.98,3.18,5.53,5.53,7.59c2.34,2.05,5.1,3.56,8.22,4.47
		c2.01,0.59,4.14,0.89,6.32,0.89c1.18,0,2.4-0.09,3.62-0.26c3.46-0.49,6.76-1.63,9.82-3.39c3.03-1.75,14.13-11.47,16.24-13.95
		c2.23-2.63,4.03-5.61,5.34-8.87c1.32-3.3,1.99-6.76,1.99-10.29C218.55,90.92,217.86,87.61,216.51,84.63z M192.04,105.77
		c-0.04,0-0.09,0.01-0.14,0.01c-0.62,0-1.23-0.09-1.81-0.27c-0.87-0.27-1.61-0.69-2.23-1.28c-0.66-0.62-1.17-1.33-1.55-2.19
		c-0.37-0.82-0.56-1.75-0.57-2.77c0-0.66,0.09-1.31,0.24-1.97c0.04,0,0.08-0.01,0.12-0.01c0.61,0,1.21,0.09,1.77,0.27
		c0.87,0.28,1.65,0.72,2.3,1.29c0.65,0.58,1.16,1.28,1.54,2.13c0.39,0.87,0.57,1.79,0.57,2.83
		C192.28,104.46,192.19,105.12,192.04,105.77z"/>
	<path class="st0" d="M184.85,145.93c-1.35-2.98-3.21-5.52-5.52-7.54c-2.31-2.03-5.06-3.53-8.17-4.47c-2.04-0.62-4.19-0.93-6.4-0.93
		c-1.16,0-2.36,0.09-3.56,0.26c-3.47,0.49-6.77,1.64-9.83,3.43c-3.02,1.77-14.14,11.5-16.25,13.93c-2.27,2.6-4.07,5.59-5.36,8.86
		c-1.3,3.29-1.95,6.74-1.95,10.27c0,3.56,0.67,6.87,2,9.84c1.32,2.98,3.18,5.53,5.53,7.59c2.34,2.05,5.1,3.56,8.22,4.47
		c2.01,0.59,4.14,0.89,6.32,0.89c1.18,0,2.4-0.09,3.62-0.26c3.46-0.49,6.76-1.63,9.82-3.39c3.03-1.75,14.13-11.47,16.24-13.95
		c2.23-2.63,4.03-5.61,5.34-8.87c1.32-3.3,1.99-6.76,1.99-10.29C186.89,152.22,186.2,148.91,184.85,145.93z M160.38,167.07
		c-0.04,0-0.09,0.01-0.14,0.01c-0.62,0-1.23-0.09-1.81-0.27c-0.87-0.27-1.61-0.69-2.23-1.28c-0.66-0.62-1.17-1.33-1.55-2.19
		c-0.37-0.82-0.56-1.75-0.57-2.77c0-0.66,0.09-1.31,0.24-1.97c0.04,0,0.08-0.01,0.12-0.01c0.61,0,1.21,0.09,1.77,0.27
		c0.87,0.28,1.65,0.72,2.3,1.29c0.65,0.58,1.16,1.28,1.54,2.13c0.39,0.87,0.57,1.79,0.57,2.83
		C160.62,165.76,160.53,166.41,160.38,167.07z"/>
	<path class="st0" d="M217.15,20.76c0.04-1.3-0.19-2.51-0.68-3.6c-0.5-1.09-1.2-2-2.08-2.71c-0.86-0.69-1.87-1.2-2.98-1.5
		c-0.7-0.19-1.42-0.29-2.16-0.29c-0.46,0-0.93,0.04-1.4,0.11c-1.19,0.19-2.32,0.57-3.37,1.15c-1.03,0.57-1.9,1.36-2.75,2.17
		c-0.92,0.88-4.48,3.91-5.64,4.85c-0.92,0.74-1.87,1.64-2.66,2.51c-0.79,0.88-1.42,1.89-1.87,3.03c-0.45,1.14-0.67,2.34-0.65,3.52
		c-0.01,0.81,0,7.57,0.02,9.08c0.02,1.14,0.27,2.22,0.74,3.2c1.17,2.46,3.45,3.92,6.09,3.92c2.11,0,4.24-0.92,6.02-2.58
		c1.42-1.33,6.86-6,8.3-7.36c3.07-2.89,5.06-7.45,5.06-11.63l0-1.03C217.14,22.4,217.14,21.33,217.15,20.76z"/>
	<path class="st0" d="M90.9,38.89c0-2.65-0.98-4.8-2.91-6.41c-1.38-1.15-3.21-1.79-5.14-1.79c-0.43,0-0.87,0.03-1.3,0.09l-3.19,0.45
		c-1.12,0.17-2.14,0.66-2.99,1.38l0,0l-0.02,0.02c-0.05,0.04-0.1,0.09-0.15,0.13l-7.12,6.28c-0.06-0.18-0.12-0.36-0.2-0.52
		c-0.49-1.08-1.15-2-1.99-2.74c-0.84-0.73-1.84-1.27-2.98-1.61c-0.73-0.21-1.51-0.32-2.33-0.32c-0.46,0-0.94,0.03-1.42,0.1
		l-3.08,0.43c-1.07,0.16-2.06,0.63-2.89,1.29l0-0.01l-0.1,0.09c-0.07,0.06-0.14,0.12-0.2,0.18l-8.25,7.28l0.01,0.02
		c-1.4,1.24-2.3,3.07-2.3,5.03l0.03,36.56c0,2.61,0.91,4.73,2.69,6.3c1.46,1.27,3.2,1.92,5.19,1.92c0.45,0,0.92-0.03,1.39-0.1
		c1.82-0.26,3.44-0.97,4.85-2.14l0,0l8.31-7.33c0.33,1.8,1.17,3.31,2.53,4.5c1.46,1.27,3.2,1.92,5.19,1.92
		c0.45,0,0.92-0.03,1.39-0.1c1.68-0.24,3.2-0.88,4.54-1.89l0,0.01l0.06-0.05c0.37-0.28,0.72-0.59,1.06-0.93l7.48-6.6
		c0.01-0.01,0.01-0.01,0.02-0.02l0.5-0.44l0,0c0.28-0.26,0.55-0.53,0.81-0.83c1.68-1.92,2.54-4.17,2.54-6.68L90.9,38.89z"/>
	<path class="st0" d="M198.61,23.05c-0.06-1.24-0.37-2.38-0.9-3.39c-0.52-0.99-1.23-1.85-2.12-2.57c-0.92-0.74-2-1.23-3.19-1.46
		c-0.64-0.13-1.29-0.2-1.91-0.2c-1.71,0-3.35,0.49-4.89,1.44c-0.58,0.36-1.1,0.77-1.59,1.22l-8.28,7.31l0.01,0.02
		c-1.28,1.18-2.24,2.68-2.86,4.49l-0.23,0.72c-0.3-0.24-0.61-0.47-0.95-0.67c-1.21-0.7-2.53-1.05-3.9-1.05
		c-0.26,0-0.52,0.01-0.8,0.04c-1.62,0.16-3.15,0.82-4.58,1.95l-6.06,5.35L153.06,27c-0.85-2.4-2.51-4.06-4.79-4.82
		c-0.85-0.28-1.73-0.42-2.62-0.42c-1.4,0-2.84,0.36-4.27,1.05c-0.76,0.36-1.45,0.83-2.09,1.37l-0.01-0.01l-0.17,0.15
		c-0.01,0.01-0.03,0.03-0.04,0.04l-8.35,7.37l0.02,0.02c-0.21,0.19-0.42,0.39-0.62,0.61c-0.81,0.88-1.46,1.86-1.94,2.91
		c-0.5,1.1-0.79,2.27-0.84,3.47c-0.06,1.21,0.09,2.4,0.5,3.63l11.91,31.8c0.9,2.36,2.44,3.98,4.6,4.83
		c0.86,0.34,1.77,0.51,2.69,0.51c1.36,0,2.77-0.37,4.13-1.07c0.86-0.4,1.63-0.91,2.3-1.49l0,0l7.3-6.45l0.7,1.55l0.05,0.11
		c0.53,1,1.24,1.86,2.11,2.56c0.92,0.74,2.04,1.23,3.35,1.46c0.67,0.15,1.34,0.23,1.99,0.23c1.68,0,3.27-0.5,4.74-1.5
		c0.21-0.14,0.41-0.3,0.61-0.46l0.01,0.01l9.11-8.04l-0.03-0.02c1.23-1.2,2.16-2.71,2.77-4.5l11.95-35.22
		C198.52,25.44,198.67,24.23,198.61,23.05z"/>
	<path class="st0" d="M253.67,49.36c0-2.62-0.93-4.74-2.74-6.3c-1.47-1.27-3.22-1.91-5.18-1.91c-0.25,0-0.51,0.01-0.77,0.03
		c0.46-0.38,0.88-0.79,1.26-1.23c0.75-0.88,1.37-1.88,1.82-2.99c0.47-1.15,0.71-2.38,0.71-3.64c0-2.55-0.93-4.7-2.68-6.24l3.69-3.26
		c0.49-0.4,0.95-0.83,1.36-1.3c0.76-0.89,1.37-1.9,1.81-2.99c0.47-1.15,0.71-2.37,0.71-3.64c0-2.61-0.92-4.73-2.75-6.31
		c-1.47-1.26-3.21-1.9-5.18-1.9c-0.44,0-0.89,0.03-1.35,0.1l-20.49,2.89c-1.41,0.22-2.68,0.95-3.64,1.99l0,0l-7.5,6.62
		c-0.23,0.18-0.44,0.37-0.65,0.57l-0.41,0.36l0.04,0.05c-0.98,1.18-1.59,2.7-1.58,4.3l0.03,36.56c0,2.61,0.91,4.73,2.69,6.3
		c1.46,1.27,3.2,1.92,5.19,1.92c0.45,0,0.92-0.03,1.39-0.1l17.12-2.42c1.28-0.18,2.48-0.6,3.57-1.23c0.97-0.57,1.82-1.26,2.53-2.04
		l0,0l6.86-6.06c0.44-0.33,0.85-0.69,1.22-1.08l1.02-0.9l-0.15-0.13c0.53-0.72,0.98-1.52,1.34-2.38
		C253.44,51.85,253.68,50.62,253.67,49.36z"/>
	<path class="st0" d="M119.18,125.25c0-2.62-0.93-4.74-2.74-6.3c-1.47-1.27-3.22-1.91-5.18-1.91c-0.25,0-0.51,0.01-0.77,0.03
		c0.46-0.38,0.88-0.79,1.26-1.23c0.75-0.88,1.37-1.88,1.82-2.99c0.47-1.15,0.71-2.38,0.71-3.64c0-2.55-0.93-4.7-2.68-6.24l3.69-3.26
		c0.49-0.4,0.95-0.83,1.36-1.3c0.76-0.89,1.37-1.9,1.81-2.99c0.47-1.15,0.71-2.37,0.71-3.64c0-2.61-0.92-4.73-2.75-6.31
		c-1.47-1.26-3.21-1.9-5.18-1.9c-0.44,0-0.89,0.03-1.35,0.1L89.4,86.57c-1.41,0.22-2.68,0.95-3.64,1.99l0,0l-7.5,6.62
		c-0.23,0.18-0.44,0.37-0.65,0.57l-0.41,0.36l0.04,0.05c-0.98,1.18-1.59,2.7-1.58,4.3l0.03,36.56c0,2.61,0.91,4.73,2.69,6.3
		c1.46,1.27,3.2,1.92,5.19,1.92c0.45,0,0.92-0.03,1.39-0.1l17.12-2.42c1.28-0.18,2.48-0.6,3.57-1.23c0.97-0.57,1.82-1.26,2.53-2.04
		l0,0l6.86-6.06c0.44-0.33,0.85-0.69,1.22-1.08l1.02-0.9l-0.15-0.13c0.53-0.72,0.98-1.52,1.34-2.38
		C118.95,127.73,119.19,126.51,119.18,125.25z"/>
	<path class="st0" d="M300.99,9.21c0-2.56-0.92-4.66-2.73-6.26c-1.48-1.3-3.23-1.95-5.21-1.95c-0.43,0-0.88,0.03-1.33,0.1
		l-1.24,0.17c-1.14,0.16-2.23,0.61-3.22,1.3l-0.07-0.08l-8.55,7.55l0.07,0.08c-0.52,0.39-1.01,0.85-1.45,1.37l-1.47,1.76l-6.46-5.72
		c-0.84-0.86-1.87-1.5-3.05-1.92c-0.83-0.3-1.72-0.45-2.64-0.45c-0.43,0-0.87,0.03-1.32,0.1l-3.2,0.45
		c-1.37,0.2-2.61,0.87-3.57,1.83l-8.15,7.2l0.01,0.01c-1.28,1.2-2.09,2.91-2.09,4.72l0.03,36.69c0,2.61,0.91,4.73,2.69,6.29
		c1.45,1.28,3.2,1.92,5.19,1.92c0.45,0,0.92-0.03,1.39-0.1c1.77-0.25,3.35-0.94,4.72-2.05l0,0l0.04-0.04
		c0.15-0.12,0.3-0.26,0.44-0.39l7.88-6.98c0.47-0.39,0.92-0.83,1.35-1.32c1.64-1.9,2.5-4.13,2.56-6.68l-0.02-3.63
		c1.18-0.48,2.26-1.2,3.24-2.16l0.06,10.96c0,2.6,0.87,4.71,2.58,6.27c1.42,1.3,3.15,1.96,5.16,1.96c0,0,0,0,0,0
		c0.45,0,0.91-0.03,1.38-0.1c2-0.28,3.76-1.13,5.26-2.5l0,0l8.38-7.43l-0.01-0.01c0.28-0.26,0.56-0.53,0.82-0.83
		c1.68-1.93,2.54-4.17,2.53-6.68L300.99,9.21z"/>
	<path class="st0" d="M37.17,100.18c0-3.04-2.34-5.42-5.32-5.42c-0.27,0-0.54,0.02-0.81,0.06l-12.86,1.82
		c-2.02,0.29-3.79,1.12-5.27,2.46l0,0l-8.55,7.55l0.02,0.02c-0.24,0.23-0.48,0.48-0.71,0.74c-1.65,1.93-2.49,4.17-2.48,6.67
		c0,2.55,0.9,4.65,2.68,6.24c1.46,1.31,3.22,1.97,5.23,1.97c0.44,0,0.9-0.03,1.37-0.1l1.87-0.26l0.16,24.02
		c0.01,7.56,4.73,8.38,6.76,8.38h0c0.45,0,0.92-0.03,1.4-0.1c1.92-0.27,3.61-1.03,4.94-2.12l0.01,0.01l0.21-0.18
		c0.07-0.06,0.14-0.12,0.2-0.18l8.07-7.15l0-0.01c1.87-1.62,2.99-3.92,2.99-6.53l0.13-27.57L37.17,100.18z"/>
	<path class="st0" d="M83.26,96.86c0-2.65-0.98-4.8-2.91-6.41c-1.38-1.15-3.21-1.79-5.14-1.79c-0.43,0-0.87,0.03-1.3,0.09
		l-3.19,0.45c-1.24,0.19-2.36,0.78-3.26,1.62l-0.01-0.01l-5.55,4.89c-0.44-0.85-1.02-1.61-1.77-2.26c-1.45-1.27-3.19-1.92-5.19-1.92
		c-0.45,0-0.92,0.03-1.39,0.1l-10.7,1.51c-1.35,0.19-2.58,0.89-3.54,1.88l-7.77,6.86c-0.05,0.04-0.09,0.08-0.14,0.12l-0.52,0.46
		l0.03,0.03c-1.12,1.21-1.82,2.84-1.82,4.55l0.03,37.75c0,4.3,2.89,7.08,7.35,7.08c0.54,0,1.11-0.04,1.69-0.12
		c1.49-0.21,2.79-0.75,3.88-1.55l0,0l0.03-0.03c0.33-0.25,0.64-0.52,0.93-0.82l7.75-6.84c0.08-0.07,0.16-0.14,0.24-0.21l0.16-0.14
		l-0.01-0.01c1.81-1.76,2.84-4.42,2.84-7.68l0-0.85l3.02-0.43l0,6.47c0,2.61,0.91,4.73,2.69,6.3c1.45,1.27,3.2,1.92,5.19,1.92
		c0,0,0,0,0,0c0.45,0,0.91-0.03,1.38-0.1c1.44-0.2,2.76-0.7,3.95-1.48l0.05,0.06l0.53-0.47c0.41-0.31,0.81-0.66,1.19-1.05l7.34-6.47
		c0.5-0.4,0.97-0.85,1.41-1.35c1.68-1.92,2.54-4.17,2.54-6.68L83.26,96.86z"/>
	<path class="st0" d="M170.73,111.28c-1.47-1.27-3.22-1.91-5.18-1.91c-0.44,0-0.89,0.03-1.35,0.1l-9.67,1.37l-0.02-23.89
		c0-1.35-0.25-2.59-0.74-3.67c-0.49-1.08-1.15-2-1.99-2.74c-0.84-0.73-1.84-1.27-2.98-1.61c-0.73-0.21-1.51-0.32-2.34-0.32
		c-0.46,0-0.94,0.03-1.43,0.1l-3.06,0.43c-1.13,0.17-2.16,0.67-3.02,1.4l0,0l-0.02,0.02c-0.02,0.02-0.05,0.04-0.07,0.06l-7.64,6.83
		l0.01,0.02c-1.78,1.2-2.99,3.3-2.99,5.56l0.03,36.56c0,2.55,0.88,4.63,2.6,6.18c1.5,1.35,3.32,2.03,5.4,2.03
		c0.29,0,0.58-0.01,0.87-0.04l19.23-2.71c1.28-0.18,2.48-0.6,3.58-1.24c1.05-0.61,1.96-1.37,2.7-2.24l6.88-6
		c0.3-0.24,0.59-0.48,0.85-0.74l0.01-0.01l0,0c0.2-0.19,0.39-0.39,0.56-0.6c0.75-0.88,1.37-1.88,1.82-2.99
		c0.47-1.15,0.7-2.37,0.7-3.64C173.47,114.96,172.55,112.84,170.73,111.28z"/>
	<path class="st0" d="M263.81,71.35c0-1.16-0.21-2.22-0.62-3.14c-0.53-1.2-1.28-2.23-2.22-3.06c-0.86-0.76-1.86-1.31-2.96-1.64
		c-0.75-0.23-1.53-0.35-2.32-0.35c-0.38,0-0.77,0.03-1.15,0.08l-3.26,0.46c-1.31,0.2-2.5,0.85-3.42,1.77l-0.03-0.02l-7.46,6.59
		l0.06,0.07c-0.69,0.49-1.29,1.11-1.76,1.83l-1.81-1.97c-0.6-0.66-1.05-1.14-1.32-1.43c-0.23-0.24-0.41-0.44-0.53-0.59l-0.08-0.1
		l-0.1-0.09c-0.99-0.93-2.05-1.66-3.15-2.16c-0.9-0.41-1.89-0.62-2.92-0.62c-0.38,0-0.77,0.03-1.16,0.08l-3.29,0.47
		c-1.45,0.23-2.74,1-3.7,2.09l0,0l-7.23,6.39c-1.66,1.22-2.77,3.23-2.76,5.39l0.03,36.58c0,2.61,0.91,4.73,2.69,6.3
		c1.46,1.27,3.2,1.92,5.19,1.92c0.45,0,0.92-0.03,1.39-0.1c1.93-0.27,3.62-1.07,5.06-2.35l0.05,0.06l8.38-7.51l-0.01-0.01
		c0.32-0.3,0.64-0.61,0.93-0.96c0.23-0.27,0.44-0.55,0.64-0.84l5.12,5.58c0.87,0.91,1.91,1.55,3.09,1.92
		c0.84,0.26,1.71,0.39,2.58,0.39c0.26,0,0.51-0.01,0.77-0.03c1.16-0.1,2.31-0.44,3.39-1.01c0.83-0.43,1.61-1,2.34-1.69l7.17-6.43
		c0.61-0.44,1.21-0.96,1.76-1.56c1.04-1.15,1.77-2.44,2.15-3.83c0.34-1.25,0.51-2.53,0.51-3.81L263.81,71.35z"/>
	<path class="st0" d="M311.4,93.45l-0.01-6.79c0-1.73-0.64-3.2-1.84-4.26c-0.98-0.86-2.2-1.31-3.54-1.31c-0.3,0-0.61,0.02-0.92,0.07
		l-0.12,0.02l1.94-1.71l-0.01-0.01c0.57-0.44,1.12-0.94,1.61-1.52c0.8-0.93,1.42-1.98,1.84-3.13c0.43-1.15,0.65-2.32,0.65-3.46
		c0-1.18-0.23-2.31-0.69-3.36c-0.44-1.04-1.08-1.96-1.9-2.76c-2.37-2.51-5.23-4.43-8.49-5.71c-2.34-0.92-4.86-1.39-7.51-1.39
		c-1.12,0-2.29,0.08-3.46,0.25c-3.47,0.49-6.77,1.64-9.82,3.43c-3.03,1.77-5.7,3.98-7.96,6.58c-0.32,0.37-0.61,0.76-0.91,1.14
		c-2.79,1.71-5.28,3.78-7.39,6.21c-2.27,2.61-4.07,5.59-5.36,8.86c-1.3,3.29-1.95,6.75-1.95,10.27c0,3.56,0.67,6.87,2,9.84
		c1.32,2.98,3.18,5.53,5.53,7.59c2.34,2.05,5.1,3.56,8.22,4.47c2.01,0.59,4.14,0.89,6.32,0.89c0,0,0,0,0,0
		c1.18,0,2.39-0.09,3.62-0.26c4.93-0.7,12.54-3.96,16.3-6.99c0.3-0.24,0.57-0.48,0.85-0.71l0.02,0.03l7.71-6.9l0-0.01
		C309.55,100.02,311.41,97.65,311.4,93.45z M282.42,88.51c-0.38-0.85-0.57-1.8-0.57-2.82c0-0.66,0.09-1.31,0.24-1.97
		c0.73,0,1.4,0.16,2.02,0.47c0.99,0.5,1.87,1.1,2.64,1.8l-3.86,3.4C282.72,89.11,282.56,88.83,282.42,88.51z"/>
	<path class="st0" d="M233.54,161.27l-0.01-6.79c0-1.73-0.64-3.2-1.84-4.26c-0.98-0.86-2.2-1.31-3.54-1.31
		c-0.3,0-0.61,0.02-0.92,0.07l-0.12,0.02l1.94-1.71l-0.01-0.01c0.57-0.44,1.12-0.94,1.61-1.52c0.8-0.93,1.42-1.98,1.84-3.13
		c0.43-1.15,0.65-2.32,0.65-3.46c0-1.18-0.23-2.31-0.69-3.36c-0.44-1.04-1.08-1.96-1.9-2.76c-2.37-2.51-5.23-4.43-8.49-5.71
		c-2.34-0.92-4.86-1.39-7.51-1.39c-1.12,0-2.29,0.08-3.46,0.25c-3.47,0.49-6.77,1.64-9.82,3.43c-3.03,1.77-5.7,3.98-7.96,6.58
		c-0.32,0.37-0.61,0.76-0.91,1.14c-2.79,1.71-5.28,3.78-7.39,6.21c-2.27,2.61-4.07,5.59-5.36,8.86c-1.3,3.29-1.95,6.75-1.95,10.27
		c0,3.56,0.67,6.87,2,9.84c1.32,2.98,3.18,5.53,5.53,7.59c2.34,2.05,5.1,3.56,8.22,4.47c2.01,0.59,4.14,0.89,6.32,0.89c0,0,0,0,0,0
		c1.18,0,2.39-0.09,3.62-0.26c4.93-0.7,12.54-3.96,16.3-6.99c0.3-0.24,0.57-0.48,0.85-0.71l0.02,0.03l7.71-6.9l0-0.01
		C231.69,167.85,233.54,165.47,233.54,161.27z M204.56,156.33c-0.38-0.85-0.57-1.8-0.57-2.82c0-0.66,0.09-1.31,0.24-1.97
		c0.73,0,1.4,0.16,2.02,0.47c0.99,0.5,1.87,1.1,2.64,1.8l-3.86,3.4C204.86,156.94,204.7,156.65,204.56,156.33z"/>
	<path class="st0" d="M134.52,153.04c-1.36-2.98-3.21-5.52-5.52-7.54c-2.31-2.03-5.06-3.53-8.17-4.47c-2.04-0.62-4.19-0.93-6.4-0.93
		c-1.16,0-2.36,0.09-3.56,0.26l-14.03,1.98c-1.28,0.2-2.44,0.82-3.36,1.71l-8.25,7.28l0.01,0.02c-1.31,1.23-2.14,3-2.14,4.89
		l0.03,36.56c0,2.61,0.91,4.73,2.69,6.29c1.45,1.28,3.2,1.92,5.19,1.92h0c0.45,0,0.92-0.03,1.39-0.1l10.76-1.52
		c3.46-0.49,6.76-1.63,9.82-3.39c1.9-1.09,3.63-2.39,5.23-3.83l9-7.95l-0.03-0.02c0.71-0.68,1.4-1.39,2.04-2.15
		c2.23-2.63,4.03-5.61,5.34-8.87c1.32-3.3,1.99-6.77,1.99-10.29C136.56,159.33,135.87,156.02,134.52,153.04z M110.09,173.98
		l-0.69,0.14l0-5.31c0.12,0.2,0.23,0.41,0.33,0.63c0.38,0.84,0.57,1.75,0.57,2.78C110.29,172.81,110.22,173.4,110.09,173.98z"/>
	<g>
		<path class="st0" d="M189.84,123.88c-2.18,0-4.31-0.3-6.32-0.89c-3.12-0.92-5.88-2.42-8.22-4.47c-2.34-2.06-4.2-4.62-5.53-7.59
			c-1.32-2.97-2-6.28-2-9.84c0-3.52,0.65-6.98,1.95-10.27c1.29-3.28,3.09-6.26,5.36-8.86c2.25-2.59,4.93-4.81,7.95-6.58
			c3.05-1.79,6.36-2.94,9.83-3.43c1.2-0.17,2.4-0.26,3.56-0.26c2.21,0,4.36,0.31,6.4,0.93c3.11,0.94,5.86,2.45,8.17,4.47
			c2.31,2.03,4.17,4.56,5.52,7.54c1.35,2.98,2.04,6.29,2.04,9.84c0,3.52-0.67,6.99-1.99,10.29c-1.31,3.26-3.1,6.24-5.34,8.87
			c-2.24,2.63-4.91,4.85-7.95,6.6c-3.05,1.76-6.36,2.9-9.82,3.39C192.23,123.79,191.01,123.88,189.84,123.88z M194.4,89.93
			c-0.31,0-0.64,0.02-0.97,0.07c-1.02,0.14-2,0.5-2.93,1.05c-0.95,0.57-1.79,1.29-2.48,2.13c-0.7,0.86-1.27,1.84-1.68,2.91
			c-0.4,1.05-0.61,2.11-0.61,3.17c0,1.02,0.19,1.95,0.57,2.77c0.39,0.86,0.89,1.57,1.55,2.19c0.63,0.58,1.36,1,2.24,1.28
			c0.58,0.18,1.19,0.27,1.81,0.27c0.32,0,0.65-0.02,0.98-0.07c1.02-0.14,1.96-0.48,2.88-1.04c0.94-0.57,1.79-1.3,2.51-2.16
			c0.71-0.85,1.29-1.83,1.7-2.9c0.4-1.04,0.61-2.11,0.61-3.17c0-1.03-0.19-1.96-0.57-2.83c-0.38-0.85-0.88-1.55-1.54-2.13
			c-0.66-0.58-1.42-1-2.3-1.29C195.61,90.02,195.02,89.93,194.4,89.93z"/>
		<path class="st1" d="M169.78,101.08c0-3.28,0.6-6.46,1.81-9.53c1.21-3.07,2.88-5.84,5.01-8.28c2.13-2.44,4.61-4.5,7.45-6.16
			s5.88-2.72,9.09-3.18c3.22-0.45,6.25-0.25,9.1,0.61c2.85,0.86,5.32,2.21,7.43,4.06c2.1,1.85,3.78,4.14,5.02,6.86
			c1.24,2.73,1.86,5.73,1.86,9.01c0,3.28-0.61,6.46-1.85,9.54c-1.24,3.08-2.9,5.85-5.01,8.32c-2.1,2.47-4.57,4.52-7.42,6.16
			c-2.85,1.64-5.88,2.69-9.09,3.14c-3.22,0.45-6.25,0.27-9.1-0.57s-5.33-2.19-7.46-4.05c-2.13-1.87-3.8-4.17-5.02-6.9
			C170.39,107.38,169.78,104.37,169.78,101.08z M183.73,99.27c0,1.31,0.25,2.52,0.75,3.6c0.49,1.09,1.16,2.03,2.01,2.82
			c0.84,0.79,1.84,1.37,3.01,1.73c1.16,0.37,2.39,0.46,3.68,0.28c1.29-0.18,2.5-0.62,3.64-1.31s2.14-1.55,3.01-2.58
			c0.86-1.03,1.54-2.19,2.04-3.47c0.49-1.28,0.74-2.58,0.74-3.89c0-1.31-0.25-2.52-0.75-3.64c-0.5-1.11-1.18-2.05-2.04-2.82
			c-0.87-0.76-1.87-1.33-3.01-1.69s-2.35-0.46-3.64-0.28s-2.51,0.62-3.68,1.31c-1.16,0.69-2.16,1.56-3,2.58
			c-0.84,1.03-1.51,2.19-2,3.46C183.98,96.66,183.73,97.95,183.73,99.27z"/>
		<path class="st0" d="M285.95,110.3c-2.18,0-4.31-0.3-6.32-0.89c-3.12-0.91-5.89-2.42-8.22-4.47c-2.34-2.06-4.2-4.62-5.53-7.59
			c-1.32-2.97-2-6.28-2-9.84c0-3.52,0.65-6.98,1.95-10.27c1.29-3.27,3.09-6.26,5.36-8.86c2.26-2.59,4.93-4.81,7.96-6.58
			c3.05-1.79,6.36-2.94,9.82-3.43c1.17-0.17,2.34-0.25,3.46-0.25c2.64,0,5.17,0.47,7.51,1.39c3.27,1.28,6.13,3.21,8.49,5.71
			c0.82,0.8,1.46,1.73,1.9,2.76c0.45,1.05,0.69,2.19,0.69,3.36c0,1.14-0.22,2.31-0.65,3.46c-0.42,1.15-1.04,2.2-1.84,3.13
			c-0.86,0.99-1.83,1.78-2.88,2.34c-1.05,0.55-2.13,0.91-3.22,1.07c-0.41,0.06-0.83,0.09-1.24,0.09c-0.69,0-1.4-0.08-2.1-0.25
			c-1.16-0.27-2.2-0.82-3.07-1.62c-0.3-0.22-0.6-0.51-0.93-0.9c-0.78-0.71-1.68-1.32-2.68-1.83c-0.63-0.32-1.3-0.47-2.04-0.47
			c-0.26,0-0.54,0.02-0.83,0.06c-1.03,0.15-1.99,0.49-2.92,1.05c-0.95,0.57-1.79,1.29-2.49,2.13c-0.7,0.86-1.27,1.84-1.68,2.91
			c-0.4,1.05-0.61,2.11-0.61,3.17c0,1.03,0.19,1.98,0.57,2.82c0.38,0.86,0.88,1.55,1.53,2.12c0.66,0.58,1.43,1.02,2.31,1.3
			c0.4,0.13,0.81,0.21,1.24,0.25c-0.64-1.09-0.97-2.25-0.97-3.48c0-2.26,1.05-3.54,1.93-4.21c1.04-0.8,2.32-1.31,3.8-1.52
			l12.84-1.81c0.31-0.04,0.62-0.07,0.92-0.07c1.34,0,2.56,0.45,3.54,1.31c1.2,1.05,1.83,2.53,1.84,4.26l0.01,6.79
			c0,4.32-1.94,6.71-5.54,9.6c-3.76,3.03-11.37,6.29-16.3,6.99C288.34,110.21,287.13,110.3,285.95,110.3
			C285.95,110.3,285.95,110.3,285.95,110.3z"/>
		<path class="st1" d="M304.61,101.49c3.62-2.92,4.79-4.82,4.79-8.04l-0.01-6.79c0-1.16-0.39-2.08-1.15-2.75
			c-0.77-0.67-1.72-0.93-2.86-0.77l-12.84,1.81c-1.14,0.16-2.09,0.54-2.86,1.13c-0.77,0.59-1.15,1.46-1.15,2.62
			c0,1.06,0.35,2.06,1.04,3c0.69,0.94,2.47,1.3,3.46,1.37c-0.44,0.22-1.84,0.54-2.31,0.7c-0.47,0.17-0.95,0.29-1.45,0.36
			c-1.29,0.18-2.5,0.09-3.64-0.28c-1.14-0.37-2.14-0.94-3.01-1.69c-0.87-0.76-1.55-1.7-2.04-2.82c-0.5-1.11-0.74-2.33-0.75-3.64
			c0-1.31,0.25-2.61,0.74-3.89c0.49-1.28,1.16-2.43,2-3.46c0.84-1.02,1.84-1.89,3.01-2.58c1.16-0.69,2.39-1.13,3.67-1.31
			c1.49-0.21,2.83-0.01,4.05,0.6c1.21,0.61,2.29,1.35,3.23,2.23c0.3,0.36,0.54,0.6,0.74,0.73c0.64,0.62,1.4,1.03,2.26,1.23
			c0.87,0.2,1.73,0.25,2.6,0.13c0.87-0.12,1.72-0.41,2.56-0.85c0.84-0.45,1.61-1.07,2.3-1.88c0.64-0.74,1.14-1.58,1.48-2.52
			c0.35-0.93,0.52-1.85,0.52-2.76c0-0.91-0.18-1.77-0.52-2.58c-0.35-0.81-0.84-1.52-1.48-2.14c-2.18-2.32-4.78-4.07-7.8-5.26
			c-3.02-1.19-6.34-1.53-9.95-1.02c-3.22,0.45-6.25,1.51-9.09,3.18c-2.85,1.67-5.33,3.72-7.46,6.16c-2.13,2.45-3.8,5.21-5.01,8.28
			c-1.21,3.07-1.81,6.25-1.81,9.53c0,3.28,0.61,6.29,1.83,9.02c1.21,2.73,2.89,5.03,5.02,6.9c2.13,1.87,4.62,3.22,7.47,4.05
			c2.85,0.84,5.88,1.02,9.09,0.57C293.99,107.39,301.28,104.17,304.61,101.49z"/>
		<path class="st0" d="M226.8,118.81c-1.99,0-3.74-0.65-5.19-1.92c-1.78-1.57-2.69-3.68-2.69-6.3l-0.03-36.58
			c0-3.17,2.37-6.03,5.41-6.51l3.29-0.47c0.39-0.06,0.78-0.08,1.16-0.08c1.03,0,2.02,0.21,2.92,0.62c1.09,0.5,2.15,1.22,3.15,2.16
			l0.1,0.09l0.08,0.1c0.13,0.15,0.3,0.35,0.53,0.59c0.28,0.29,0.72,0.77,1.32,1.43l2.49,2.72c1.06,1.16,2.41,2.61,4.04,4.37
			c0.76,0.82,1.59,1.72,2.51,2.72l-0.03-4.51l-0.01-7.04c0-3.18,2.38-6.04,5.42-6.51l3.26-0.46c0.39-0.05,0.77-0.08,1.15-0.08
			c0.79,0,1.57,0.12,2.32,0.35c1.1,0.33,2.09,0.89,2.96,1.64c0.94,0.82,1.68,1.85,2.22,3.06c0.41,0.92,0.62,1.98,0.62,3.14
			l0.02,32.63c0,1.28-0.17,2.56-0.51,3.81c-0.38,1.39-1.11,2.67-2.15,3.83c-0.91,0.99-1.91,1.77-2.97,2.32
			c-1.08,0.57-2.22,0.91-3.39,1.01c-0.26,0.02-0.52,0.03-0.77,0.03l0,0c-0.87,0-1.74-0.13-2.58-0.39c-1.18-0.37-2.21-1.01-3.09-1.92
			l-11.58-12.62l-0.04,8.6c0,2.49-0.82,4.72-2.44,6.64c-1.64,1.93-3.69,3.08-6.11,3.42C227.72,118.78,227.25,118.81,226.8,118.81z"
			/>
		<path class="st1" d="M261.36,69.02c-0.42-0.94-0.99-1.73-1.71-2.36c-0.65-0.57-1.39-0.98-2.23-1.24c-0.84-0.26-1.71-0.33-2.6-0.2
			l-3.19,0.45c-0.02,0-0.03,0-0.05,0.01c-2.09,0.32-3.72,2.4-3.72,4.52l0.01,7.03l0,0l0.06,9.7c-2.38-2.59-4.38-4.77-6.02-6.53
			c-1.64-1.76-2.98-3.22-4.05-4.38c-1.06-1.16-1.89-2.07-2.49-2.72c-0.59-0.65-1.03-1.12-1.3-1.41c-0.27-0.29-0.48-0.52-0.63-0.71
			c-0.84-0.79-1.71-1.39-2.6-1.79c-0.89-0.4-1.88-0.53-2.97-0.38l-3.19,0.45c-0.02,0-0.05,0.01-0.07,0.01
			c-2.09,0.33-3.72,2.4-3.71,4.52l0,3.65l0,5.53l0.02,27.4c0,2.02,0.67,3.61,2.01,4.79c1.34,1.17,3,1.62,4.98,1.34
			c1.93-0.27,3.55-1.19,4.86-2.73c1.31-1.55,1.96-3.33,1.96-5.35l0.07-13.71l15.01,16.35c0.64,0.67,1.38,1.13,2.23,1.39
			c0.84,0.26,1.71,0.35,2.6,0.27s1.77-0.34,2.64-0.79c0.86-0.45,1.67-1.08,2.41-1.89c0.84-0.93,1.41-1.93,1.7-3.01
			c0.3-1.08,0.44-2.17,0.44-3.28l-0.02-32.63C261.8,70.53,261.67,69.73,261.36,69.02z"/>
		<path class="st0" d="M144.57,130.44c-2.08,0-3.9-0.68-5.4-2.03c-1.72-1.55-2.6-3.63-2.6-6.18l-0.03-36.56
			c0-3.2,2.39-6.07,5.44-6.53l3.06-0.43c0.48-0.07,0.97-0.1,1.43-0.1c0.82,0,1.61,0.11,2.34,0.32c1.14,0.33,2.14,0.87,2.98,1.61
			c0.84,0.74,1.5,1.66,1.99,2.74c0.49,1.09,0.74,2.32,0.74,3.67l0.02,23.89l9.67-1.37c0.46-0.06,0.91-0.1,1.35-0.1
			c1.97,0,3.71,0.64,5.18,1.91c1.81,1.56,2.74,3.68,2.74,6.3c0,1.26-0.23,2.49-0.7,3.64c-0.45,1.11-1.07,2.12-1.82,2.99
			c-0.75,0.87-1.66,1.62-2.7,2.24c-1.09,0.64-2.3,1.06-3.58,1.24l-19.23,2.71C145.14,130.42,144.85,130.44,144.57,130.44
			L144.57,130.44z"/>
		<path class="st1" d="M169.42,112.8c-1.36-1.18-3.01-1.62-4.94-1.35l-11.95,1.69l-0.02-26.2c0-1-0.17-1.98-0.56-2.85
			c-0.37-0.82-0.87-1.51-1.48-2.05c-0.62-0.54-1.36-0.94-2.22-1.19c-0.92-0.27-1.92-0.3-2.92-0.16l-2.99,0.42
			c-0.02,0-0.03,0-0.05,0.01c-2.1,0.32-3.74,2.41-3.74,4.55l0,3.62l0.01,7.06l0.02,25.88c0,1.97,0.65,3.53,1.93,4.69
			c1.29,1.16,2.87,1.65,4.75,1.49l19.12-2.7c0.97-0.14,1.95-0.46,2.84-0.98c0.85-0.5,1.58-1.1,2.2-1.81
			c0.62-0.72,1.11-1.53,1.48-2.44c0.37-0.92,0.55-1.87,0.55-2.88C171.46,115.56,170.78,113.97,169.42,112.8z"/>
		<path class="st0" d="M91.88,137.87c-1.99,0-3.74-0.65-5.19-1.92c-1.78-1.57-2.69-3.68-2.69-6.3L83.97,93.1
			c0-3.2,2.39-6.06,5.44-6.53l20.49-2.89c0.46-0.06,0.91-0.1,1.35-0.1c1.96,0,3.71,0.64,5.18,1.9c1.82,1.57,2.74,3.7,2.75,6.31
			c0,1.26-0.24,2.49-0.71,3.64c-0.44,1.09-1.05,2.1-1.81,2.99c-0.76,0.88-1.68,1.64-2.72,2.25c-1.09,0.64-2.29,1.05-3.59,1.24
			l-0.22,0.03c0.49,0.27,0.97,0.59,1.41,0.98c1.8,1.54,2.74,3.72,2.75,6.3c0,1.27-0.24,2.49-0.71,3.64
			c-0.45,1.11-1.06,2.11-1.82,2.99c-0.38,0.44-0.8,0.85-1.26,1.23c0.26-0.02,0.52-0.03,0.77-0.03c1.97,0,3.71,0.64,5.18,1.91
			c1.82,1.56,2.74,3.68,2.74,6.3c0,1.26-0.24,2.48-0.7,3.64c-0.45,1.11-1.07,2.12-1.82,3c-0.74,0.87-1.65,1.62-2.71,2.24
			c-1.09,0.64-2.29,1.05-3.57,1.23l-17.12,2.42C92.79,137.84,92.32,137.87,91.88,137.87z"/>
		<path class="st1" d="M110.19,119.12l-10.24,1.45l0-2.5l5.14-0.73c1-0.14,2-0.45,2.92-0.98c0.86-0.5,1.6-1.11,2.22-1.83
			c0.62-0.72,1.11-1.53,1.48-2.44c0.37-0.91,0.56-1.87,0.56-2.88c0-2.01-0.69-3.61-2.05-4.78c-1.36-1.17-3.01-1.62-4.94-1.35
			l-5.34,0.76l0-2.5l10.12-1.43c0.98-0.14,1.96-0.45,2.85-0.98c0.86-0.5,1.59-1.11,2.21-1.82c0.62-0.72,1.11-1.53,1.48-2.45
			c0.37-0.91,0.56-1.87,0.56-2.88c0-2.02-0.69-3.61-2.05-4.79c-1.36-1.17-3.01-1.61-4.94-1.34l-20.41,2.88c-0.02,0-0.03,0-0.05,0.01
			c-2.1,0.32-3.73,2.41-3.73,4.55l0,3.63l0.01,9.96L86,129.66c0,2.02,0.67,3.61,2.01,4.79c1.34,1.17,3,1.62,4.98,1.34l17.12-2.42
			c0.97-0.14,1.94-0.46,2.83-0.98c0.86-0.5,1.59-1.1,2.2-1.82c0.62-0.72,1.11-1.53,1.48-2.44c0.37-0.92,0.56-1.87,0.56-2.88
			c0-2.02-0.69-3.61-2.05-4.78C113.77,119.29,112.12,118.85,110.19,119.12z"/>
		<path class="st0" d="M27.53,146.97c-2.03,0-6.75-0.82-6.76-8.38l-0.16-24.02l-1.87,0.26c-0.46,0.07-0.93,0.1-1.37,0.1
			c-2.01,0-3.77-0.66-5.23-1.97c-1.77-1.59-2.67-3.69-2.68-6.24c0-2.5,0.83-4.74,2.48-6.67c1.66-1.92,3.75-3.07,6.22-3.42
			l12.86-1.82c0.28-0.04,0.55-0.06,0.81-0.06c2.98,0,5.32,2.38,5.32,5.42l0.01,10.31l-0.13,27.57c0,4.5-3.33,8.13-8.11,8.81
			C28.45,146.93,27.98,146.97,27.53,146.97L27.53,146.97z"/>
		<path class="st1" d="M35.16,100.18c0-2.17-1.73-3.68-3.85-3.38l-12.86,1.82c-1.98,0.28-3.64,1.19-4.97,2.74
			c-1.33,1.56-2,3.34-2,5.36c0,1.97,0.67,3.55,2.01,4.75c1.34,1.2,3,1.66,4.98,1.38l4.15-0.59l0.17,26.33
			c0,4.76,2.06,6.83,5.87,6.29c3.6-0.51,6.39-3.12,6.38-6.83l0.13-27.56L35.16,100.18z"/>
		<path class="st0" d="M44.79,144.51c-4.46,0-7.35-2.78-7.35-7.08l-0.03-37.75c0-3.18,2.45-6.11,5.46-6.53l10.7-1.51
			c0.47-0.07,0.94-0.1,1.39-0.1c1.99,0,3.74,0.64,5.19,1.92c1.79,1.58,2.69,3.7,2.69,6.3c0,2.45-0.83,4.67-2.48,6.62
			c-0.78,0.93-1.67,1.67-2.64,2.24l7.58-1.07l-0.01-11.8c0-3.2,2.39-6.06,5.44-6.53l3.19-0.45c0.43-0.06,0.87-0.09,1.3-0.09
			c1.93,0,3.75,0.63,5.14,1.79c1.93,1.61,2.9,3.76,2.91,6.41l0.02,33.46c0,2.51-0.85,4.76-2.54,6.68c-1.68,1.92-3.76,3.07-6.16,3.41
			c-0.47,0.07-0.94,0.1-1.38,0.1c0,0,0,0,0,0c-1.99,0-3.74-0.65-5.19-1.92c-1.78-1.57-2.69-3.68-2.69-6.3l0-6.47l-11.32,1.6
			l0.01,7.04c0,5.47-2.88,9.27-7.52,9.92C45.9,144.47,45.33,144.51,44.79,144.51z"/>
		<path class="st1" d="M79.07,91.99c-1.3-1.09-3.07-1.5-4.87-1.25l-3.12,0.44c-0.02,0-0.03,0-0.05,0.01
			c-2.1,0.32-3.73,2.41-3.73,4.55l0,3.63l0,4.2l0,5.72l-15.33,2.17l0-2.5l0-0.83l1.88-0.27c1.98-0.28,3.64-1.21,4.97-2.79
			c1.33-1.57,2-3.35,2-5.32c0-2.02-0.67-3.61-2.01-4.79c-1.34-1.17-3-1.62-4.98-1.34c0,0-9.34,1.32-10.7,1.51
			c-2.1,0.3-3.73,2.41-3.73,4.55l0,3.63l0,3.57l0.02,30.56c0,3.61,2.59,5.56,6.76,4.97c3.86-0.55,5.8-3.75,5.79-7.94l-0.01-8.78
			l15.33-2.17l0.01,8.78c0,2.02,0.67,3.61,2.01,4.79c1.34,1.17,3,1.62,4.98,1.34c1.93-0.27,3.57-1.19,4.93-2.74
			c1.36-1.55,2.04-3.34,2.04-5.36l-0.02-33.46C81.26,94.82,80.53,93.2,79.07,91.99z"/>
	</g>
	<g>
		<path class="st0" d="M208.09,178.12c-2.18,0-4.31-0.3-6.32-0.89c-3.12-0.91-5.89-2.42-8.22-4.47c-2.34-2.06-4.2-4.62-5.53-7.59
			c-1.32-2.97-2-6.28-2-9.84c0-3.52,0.65-6.98,1.95-10.27c1.29-3.27,3.09-6.26,5.36-8.86c2.25-2.59,4.93-4.81,7.96-6.58
			c3.05-1.79,6.36-2.94,9.82-3.43c1.17-0.17,2.34-0.25,3.46-0.25c2.64,0,5.17,0.47,7.51,1.39c3.27,1.28,6.13,3.21,8.49,5.71
			c0.82,0.8,1.46,1.72,1.9,2.76c0.45,1.05,0.69,2.19,0.69,3.36c0,1.14-0.22,2.31-0.65,3.46c-0.42,1.15-1.04,2.2-1.84,3.13
			c-0.86,0.99-1.83,1.78-2.88,2.34c-1.05,0.55-2.13,0.91-3.22,1.07c-0.41,0.06-0.83,0.09-1.24,0.09c-0.69,0-1.4-0.08-2.1-0.25
			c-1.17-0.27-2.2-0.82-3.07-1.62c-0.3-0.22-0.6-0.51-0.93-0.9c-0.78-0.71-1.68-1.32-2.68-1.83c-0.63-0.32-1.3-0.47-2.04-0.47
			c-0.26,0-0.54,0.02-0.83,0.06c-1.03,0.15-1.98,0.49-2.92,1.05c-0.96,0.57-1.79,1.29-2.49,2.13c-0.7,0.86-1.27,1.84-1.68,2.91
			c-0.4,1.05-0.61,2.11-0.61,3.17c0,1.03,0.19,1.98,0.57,2.83c0.38,0.86,0.88,1.55,1.53,2.12c0.66,0.58,1.43,1.01,2.3,1.3
			c0.4,0.13,0.81,0.21,1.23,0.25c-0.64-1.09-0.96-2.25-0.97-3.48c0-2.26,1.05-3.54,1.93-4.21c1.04-0.8,2.32-1.31,3.8-1.52
			l12.84-1.81c0.31-0.04,0.62-0.07,0.92-0.07c1.34,0,2.56,0.45,3.54,1.31c1.2,1.05,1.84,2.53,1.84,4.26l0.01,6.79
			c0,4.32-1.94,6.71-5.54,9.6c-3.76,3.03-11.37,6.29-16.3,6.99C210.48,178.03,209.26,178.12,208.09,178.12
			C208.09,178.12,208.09,178.12,208.09,178.12z"/>
		<path class="st2" d="M226.74,169.31c3.62-2.92,4.79-4.82,4.79-8.04l-0.01-6.79c0-1.16-0.39-2.08-1.15-2.75
			c-0.77-0.67-1.72-0.93-2.86-0.77l-12.84,1.81c-1.14,0.16-2.09,0.54-2.86,1.13c-0.77,0.59-1.15,1.46-1.15,2.62
			c0,1.06,0.35,2.06,1.04,3c0.69,0.94,2.47,1.3,3.46,1.37c-0.44,0.22-1.84,0.54-2.31,0.7c-0.47,0.17-0.95,0.29-1.45,0.36
			c-1.29,0.18-2.5,0.09-3.64-0.28c-1.14-0.37-2.14-0.94-3.01-1.69c-0.87-0.76-1.55-1.7-2.04-2.82c-0.5-1.11-0.74-2.33-0.75-3.64
			c0-1.31,0.25-2.61,0.74-3.89c0.49-1.28,1.16-2.43,2-3.46c0.84-1.02,1.84-1.89,3.01-2.58c1.16-0.69,2.39-1.13,3.67-1.31
			c1.49-0.21,2.83-0.01,4.05,0.6c1.21,0.61,2.29,1.35,3.23,2.23c0.3,0.36,0.54,0.6,0.74,0.73c0.64,0.62,1.4,1.03,2.26,1.23
			c0.87,0.2,1.73,0.25,2.6,0.13c0.87-0.12,1.72-0.41,2.56-0.85c0.84-0.45,1.61-1.07,2.3-1.88c0.64-0.74,1.14-1.58,1.48-2.52
			c0.35-0.93,0.52-1.85,0.52-2.76c0-0.91-0.18-1.77-0.52-2.58c-0.35-0.81-0.84-1.52-1.48-2.14c-2.18-2.32-4.78-4.07-7.8-5.26
			c-3.02-1.19-6.34-1.53-9.95-1.02c-3.22,0.45-6.25,1.51-9.09,3.18c-2.85,1.67-5.33,3.72-7.46,6.16c-2.13,2.45-3.8,5.21-5.01,8.28
			c-1.21,3.07-1.81,6.25-1.81,9.53c0,3.28,0.61,6.29,1.83,9.02c1.21,2.73,2.89,5.03,5.02,6.9c2.13,1.87,4.62,3.22,7.47,4.05
			c2.85,0.84,5.88,1.02,9.09,0.57C216.12,175.21,223.42,171.99,226.74,169.31z"/>
		<path class="st0" d="M158.18,185.17c-2.18,0-4.31-0.3-6.32-0.89c-3.12-0.92-5.88-2.42-8.22-4.47c-2.34-2.06-4.2-4.62-5.53-7.59
			c-1.32-2.97-2-6.28-2-9.84c0-3.52,0.65-6.98,1.95-10.27c1.29-3.27,3.09-6.26,5.36-8.86c2.25-2.59,4.93-4.81,7.95-6.58
			c3.05-1.79,6.36-2.94,9.83-3.43c1.2-0.17,2.4-0.26,3.56-0.26c2.21,0,4.36,0.31,6.4,0.93c3.11,0.94,5.86,2.45,8.17,4.47
			c2.31,2.03,4.16,4.56,5.52,7.54c1.35,2.98,2.04,6.29,2.04,9.84c0,3.52-0.67,6.99-1.99,10.29c-1.31,3.26-3.11,6.24-5.34,8.87
			c-2.24,2.63-4.91,4.85-7.94,6.6c-3.05,1.76-6.36,2.9-9.82,3.39C160.57,185.08,159.35,185.17,158.18,185.17z M162.74,151.22
			c-0.31,0-0.64,0.02-0.97,0.07c-1.02,0.14-2,0.5-2.93,1.05c-0.95,0.57-1.79,1.29-2.48,2.13c-0.7,0.86-1.27,1.84-1.68,2.91
			c-0.4,1.05-0.61,2.11-0.61,3.17c0,1.02,0.19,1.95,0.57,2.77c0.39,0.86,0.89,1.57,1.55,2.19c0.63,0.58,1.36,1,2.23,1.28
			c0.58,0.18,1.19,0.27,1.81,0.27c0.32,0,0.65-0.02,0.98-0.07c1.02-0.14,1.96-0.48,2.88-1.04c0.94-0.57,1.79-1.3,2.51-2.16
			c0.71-0.85,1.29-1.83,1.7-2.9c0.4-1.04,0.61-2.11,0.61-3.17c0-1.04-0.19-1.96-0.57-2.83c-0.38-0.85-0.88-1.55-1.54-2.13
			c-0.66-0.58-1.42-1-2.3-1.29C163.95,151.32,163.36,151.22,162.74,151.22z"/>
		<path class="st2" d="M138.12,162.38c0-3.28,0.6-6.46,1.81-9.53c1.21-3.07,2.88-5.84,5.01-8.28c2.13-2.44,4.61-4.5,7.45-6.16
			c2.84-1.67,5.88-2.72,9.09-3.18c3.22-0.45,6.25-0.25,9.1,0.61c2.85,0.86,5.32,2.21,7.43,4.06c2.1,1.85,3.78,4.14,5.02,6.86
			c1.24,2.73,1.86,5.73,1.86,9.01c0,3.28-0.61,6.46-1.85,9.54c-1.24,3.08-2.9,5.85-5.01,8.32c-2.1,2.47-4.57,4.52-7.42,6.16
			c-2.85,1.64-5.88,2.69-9.09,3.14c-3.22,0.45-6.25,0.27-9.1-0.57c-2.85-0.84-5.33-2.19-7.46-4.05c-2.13-1.87-3.8-4.17-5.02-6.9
			C138.72,168.67,138.12,165.66,138.12,162.38z M152.07,160.56c0,1.31,0.25,2.52,0.75,3.6c0.49,1.09,1.16,2.03,2.01,2.82
			c0.84,0.79,1.84,1.37,3.01,1.73s2.39,0.46,3.68,0.28c1.29-0.18,2.5-0.62,3.64-1.31c1.14-0.69,2.14-1.55,3.01-2.58
			c0.86-1.03,1.54-2.19,2.04-3.47c0.49-1.28,0.74-2.58,0.74-3.89c0-1.31-0.25-2.52-0.75-3.64c-0.5-1.11-1.18-2.05-2.04-2.82
			c-0.87-0.76-1.87-1.33-3.01-1.69c-1.14-0.37-2.35-0.46-3.64-0.28c-1.29,0.18-2.51,0.62-3.68,1.31c-1.16,0.69-2.16,1.56-3,2.58
			c-0.84,1.03-1.51,2.19-2,3.46C152.32,157.95,152.07,159.25,152.07,160.56z"/>
		<path class="st0" d="M99.32,193.64c-1.99,0-3.74-0.65-5.19-1.92c-1.78-1.57-2.69-3.68-2.69-6.29l-0.03-36.56
			c0-3.2,2.39-6.07,5.44-6.53l14.03-1.98c1.2-0.17,2.4-0.26,3.56-0.26c2.21,0,4.36,0.31,6.4,0.93c3.11,0.94,5.86,2.45,8.17,4.47
			c2.31,2.03,4.16,4.56,5.52,7.54c1.35,2.98,2.04,6.29,2.04,9.84c0,3.52-0.67,6.98-1.99,10.29c-1.31,3.26-3.11,6.24-5.34,8.87
			c-2.24,2.63-4.91,4.85-7.95,6.6c-3.05,1.76-6.35,2.9-9.82,3.39l-10.76,1.52C100.23,193.61,99.77,193.64,99.32,193.64L99.32,193.64
			z M109.39,174.12l1.38-0.28c1.09-0.2,2.06-0.56,2.99-1.13c0.96-0.58,1.81-1.3,2.55-2.12c0.72-0.82,1.27-1.71,1.68-2.71
			c0.39-0.96,0.59-1.97,0.59-3.02c0-1.03-0.19-1.94-0.57-2.78c-0.38-0.82-0.87-1.49-1.51-2.04c-0.66-0.56-1.41-0.96-2.29-1.23
			c-0.63-0.19-1.3-0.29-2-0.29c-0.28,0-0.56,0.02-0.85,0.04l-1.98,0.2L109.39,174.12z"/>
		<path class="st2" d="M132.69,153.87c-1.24-2.73-2.91-5.02-5.02-6.86c-2.1-1.85-4.58-3.2-7.43-4.06c-2.85-0.86-5.88-1.06-9.1-0.61
			l-13.96,1.97c-0.02,0-0.03,0-0.05,0.01c-2.1,0.32-3.74,2.41-3.74,4.55l0,3.62l0.01,6.96l0.02,25.97c0,2.02,0.67,3.61,2.01,4.79
			c1.34,1.17,3,1.62,4.98,1.34l10.76-1.52c3.22-0.45,6.25-1.5,9.09-3.14c2.84-1.64,5.32-3.69,7.42-6.16
			c2.1-2.47,3.77-5.24,5.01-8.32c1.23-3.08,1.85-6.26,1.85-9.54C134.55,159.6,133.93,156.6,132.69,153.87z M119.86,168.63
			c-0.49,1.21-1.17,2.3-2.04,3.28c-0.87,0.98-1.87,1.82-3.01,2.51c-1.14,0.69-2.35,1.15-3.64,1.38l-3.78,0.76l-0.01-19.61l3.79-0.38
			c1.29-0.13,2.5-0.03,3.64,0.32c1.14,0.34,2.14,0.88,3.01,1.62c0.86,0.73,1.54,1.65,2.04,2.74c0.5,1.09,0.74,2.29,0.75,3.6
			C120.6,166.17,120.35,167.43,119.86,168.63z"/>
	</g>
	<g>
		<path class="st0" d="M28.68,89.75c-1.16,0-2.21-0.1-3.12-0.29c-2.07-0.44-3.7-1.07-4.99-1.91c-1.18-0.75-2.26-1.67-3.19-2.72
			c-0.98-1.1-1.72-2.33-2.2-3.65c-0.51-1.36-0.67-2.81-0.48-4.3c0.19-1.5,0.82-2.97,1.86-4.37c0.59-0.81,1.45-1.57,2.54-2.23
			c1.06-0.65,2.24-1.1,3.49-1.34c0.34-0.06,0.68-0.11,1.03-0.13c-0.73-0.26-1.48-0.53-2.24-0.8c-0.61-0.2-1.36-0.52-2.17-0.95
			c-1-0.53-1.89-1.33-2.63-2.39c-0.72-1.01-1.27-2.31-1.65-3.86c-0.38-1.55-0.46-3.44-0.24-5.79c0.22-2.12,0.77-4.16,1.65-6.08
			c0.89-1.94,2.14-3.71,3.72-5.26c1.56-1.53,3.44-2.84,5.57-3.89c2.14-1.04,4.58-1.76,7.25-2.14c0.64-0.09,1.34-0.14,2.08-0.14
			c0.52,0,1.08,0.02,1.66,0.07c1.38,0.11,2.78,0.36,4.17,0.75c1.41,0.39,2.77,0.94,4.04,1.61c1.36,0.72,2.52,1.62,3.43,2.66
			c0.74,0.78,1.33,1.77,1.7,2.9c0.35,1.08,0.49,2.22,0.43,3.4c-0.06,1.14-0.29,2.27-0.67,3.34c-0.4,1.13-1.01,2.18-1.82,3.11
			c-0.86,1-1.86,1.8-2.98,2.36c-0.88,0.45-1.8,0.79-2.75,1c1.53,0.67,2.86,1.43,3.97,2.28c1.58,1.22,2.8,2.54,3.65,3.93
			c0.87,1.44,1.4,2.94,1.58,4.48c0.18,1.49,0.09,2.96-0.25,4.36c-0.45,2.39-1.37,4.56-2.75,6.44c-1.33,1.82-2.86,3.38-4.54,4.64
			c-1.66,1.25-3.42,2.26-5.22,3.01c-1.81,0.75-3.48,1.24-4.98,1.45C31.78,89.61,30.11,89.75,28.68,89.75z M30.49,71.6
			c0.34,0.39,0.6,0.57,0.83,0.57c0,0,0,0,0,0c0.31,0,0.54-0.01,0.71-0.02c-0.47-0.23-1.06-0.49-1.76-0.78
			C30.34,71.44,30.42,71.52,30.49,71.6z"/>
		<path class="st3" d="M16.67,55.23c0.19-1.89,0.69-3.71,1.48-5.43c0.79-1.73,1.89-3.28,3.3-4.67c1.41-1.38,3.09-2.56,5.05-3.52
			c1.95-0.95,4.17-1.61,6.64-1.96c0.94-0.13,2.04-0.15,3.3-0.05s2.53,0.33,3.79,0.68c1.26,0.35,2.47,0.83,3.64,1.45
			c1.16,0.62,2.12,1.36,2.86,2.21c0.6,0.62,1.03,1.36,1.3,2.2c0.27,0.85,0.38,1.74,0.34,2.68c-0.05,0.94-0.23,1.86-0.56,2.77
			c-0.32,0.9-0.8,1.73-1.45,2.47c-0.69,0.81-1.48,1.44-2.37,1.89c-0.89,0.46-1.81,0.76-2.75,0.92c-0.94,0.16-1.87,0.15-2.78-0.02
			c-0.92-0.17-1.75-0.51-2.49-1.01c-0.3-0.21-0.54-0.5-0.74-0.84c-0.2-0.35-0.41-0.69-0.63-1.01c-0.22-0.32-0.51-0.59-0.86-0.79
			c-0.35-0.2-0.82-0.26-1.41-0.18c-0.74,0.1-1.31,0.3-1.71,0.58s-0.62,0.59-0.67,0.93c-0.05,0.34,0.05,0.66,0.3,0.98
			c0.25,0.32,0.6,0.58,1.04,0.77l8.24,3.6c2.18,0.75,3.96,1.66,5.35,2.73c1.38,1.07,2.44,2.19,3.16,3.38
			c0.72,1.19,1.15,2.41,1.3,3.67s0.08,2.5-0.22,3.7c-0.39,2.13-1.2,4.02-2.41,5.68c-1.21,1.66-2.59,3.06-4.12,4.21
			c-1.53,1.15-3.13,2.08-4.79,2.76c-1.66,0.69-3.16,1.13-4.49,1.32c-3.12,0.49-5.57,0.55-7.35,0.17c-1.78-0.38-3.22-0.92-4.31-1.63
			c-1.04-0.66-1.97-1.45-2.78-2.37c-0.82-0.92-1.42-1.92-1.82-3c-0.4-1.08-0.52-2.19-0.37-3.35c0.15-1.15,0.64-2.3,1.48-3.43
			c0.45-0.62,1.1-1.19,1.97-1.71c0.87-0.53,1.81-0.89,2.82-1.08s2.05-0.15,3.12,0.13c1.06,0.28,2.04,0.91,2.93,1.9
			c0.7,0.81,1.46,1.22,2.3,1.23c0.84,0,1.46-0.06,1.86-0.23c0.79-0.27,1.21-0.8,1.26-1.61c0.05-0.81-0.37-1.44-1.26-1.87
			c-0.94-0.48-2.39-1.09-4.35-1.85c-1.96-0.75-4.22-1.58-6.8-2.48c-0.54-0.18-1.18-0.45-1.89-0.83c-0.72-0.38-1.36-0.97-1.93-1.77
			c-0.57-0.8-1.02-1.86-1.34-3.18C16.53,59.04,16.47,57.33,16.67,55.23z"/>
		<path class="st0" d="M111.74,78.03c-2.18,0-4.31-0.3-6.32-0.89c-3.12-0.92-5.88-2.42-8.22-4.47c-2.34-2.06-4.2-4.62-5.53-7.59
			c-1.32-2.97-2-6.28-2-9.84c0-3.52,0.65-6.98,1.95-10.27c1.29-3.28,3.09-6.26,5.36-8.86c2.25-2.59,4.93-4.81,7.95-6.58
			c3.05-1.79,6.36-2.94,9.83-3.43c1.2-0.17,2.4-0.26,3.56-0.26c2.21,0,4.36,0.31,6.4,0.93c3.11,0.94,5.86,2.45,8.17,4.47
			c2.31,2.03,4.16,4.56,5.52,7.54c1.35,2.98,2.04,6.29,2.04,9.84c0,3.52-0.67,6.99-1.99,10.29c-1.31,3.26-3.1,6.24-5.34,8.87
			c-2.24,2.63-4.91,4.85-7.94,6.6c-3.05,1.76-6.36,2.9-9.82,3.39C114.14,77.94,112.92,78.03,111.74,78.03z M116.3,44.08
			c-0.31,0-0.64,0.02-0.97,0.07c-1.02,0.14-2,0.5-2.93,1.05c-0.95,0.57-1.79,1.29-2.48,2.13c-0.7,0.86-1.27,1.84-1.68,2.91
			c-0.4,1.05-0.61,2.11-0.61,3.17c0,1.02,0.19,1.95,0.57,2.77c0.39,0.86,0.89,1.57,1.55,2.19c0.63,0.59,1.36,1.01,2.23,1.28
			c0.58,0.18,1.19,0.27,1.81,0.27c0.32,0,0.65-0.02,0.98-0.07c1.02-0.14,1.96-0.48,2.88-1.04c0.94-0.57,1.79-1.3,2.51-2.16
			c0.71-0.85,1.29-1.83,1.7-2.9c0.4-1.04,0.61-2.11,0.61-3.17c0-1.03-0.19-1.96-0.57-2.83c-0.38-0.85-0.88-1.55-1.54-2.13
			c-0.65-0.57-1.43-1.01-2.3-1.29C117.51,44.17,116.92,44.08,116.3,44.08z"/>
		<path class="st3" d="M91.68,55.23c0-3.28,0.6-6.46,1.81-9.53c1.21-3.07,2.88-5.84,5.01-8.28c2.13-2.44,4.61-4.5,7.45-6.16
			c2.84-1.67,5.88-2.72,9.09-3.18s6.25-0.25,9.1,0.61c2.85,0.86,5.32,2.21,7.43,4.06c2.1,1.85,3.78,4.14,5.02,6.86
			c1.24,2.73,1.86,5.73,1.86,9.01c0,3.28-0.61,6.46-1.85,9.54c-1.24,3.08-2.9,5.85-5.01,8.32c-2.1,2.47-4.57,4.52-7.42,6.16
			c-2.85,1.64-5.88,2.69-9.09,3.14c-3.22,0.45-6.25,0.27-9.1-0.57s-5.33-2.19-7.46-4.05c-2.13-1.87-3.8-4.17-5.02-6.9
			C92.29,61.52,91.68,58.52,91.68,55.23z M105.63,53.42c0,1.31,0.25,2.52,0.75,3.6c0.49,1.09,1.16,2.03,2.01,2.82
			c0.84,0.79,1.84,1.37,3.01,1.73s2.39,0.46,3.68,0.28c1.29-0.18,2.5-0.62,3.64-1.31c1.14-0.69,2.14-1.55,3.01-2.58
			c0.86-1.03,1.54-2.19,2.04-3.47c0.49-1.28,0.74-2.58,0.74-3.89c0-1.31-0.25-2.52-0.75-3.64c-0.5-1.11-1.18-2.05-2.04-2.82
			c-0.87-0.76-1.87-1.33-3.01-1.69c-1.14-0.37-2.35-0.46-3.64-0.28c-1.29,0.18-2.51,0.62-3.68,1.31s-2.16,1.56-3,2.58
			c-0.84,1.03-1.51,2.19-2,3.46C105.88,50.8,105.63,52.1,105.63,53.42z"/>
		<path class="st0" d="M155.35,72.14c-0.92,0-1.83-0.17-2.69-0.51c-2.15-0.85-3.7-2.47-4.6-4.83L136.16,35
			c-0.4-1.23-0.56-2.43-0.5-3.63c0.06-1.21,0.34-2.38,0.84-3.47c0.48-1.05,1.13-2.03,1.94-2.91c0.85-0.92,1.83-1.65,2.95-2.18
			c1.43-0.7,2.87-1.05,4.27-1.05c0.89,0,1.77,0.14,2.62,0.42c2.28,0.76,3.94,2.42,4.79,4.82l4.73,13.2l1.5-4.51
			c0.66-2.05,1.71-3.67,3.14-4.81c1.42-1.13,2.96-1.79,4.58-1.95c0.27-0.03,0.54-0.04,0.8-0.04c1.37,0,2.68,0.35,3.9,1.05
			c1.51,0.87,2.6,2.22,3.26,4.01l1.38,3.66l4.84-15.08c0.85-2.49,2.33-4.39,4.41-5.68c1.54-0.96,3.19-1.44,4.89-1.44
			c0.63,0,1.27,0.07,1.91,0.2c1.18,0.23,2.26,0.73,3.19,1.46c0.89,0.72,1.6,1.58,2.12,2.57c0.53,1.01,0.84,2.15,0.9,3.39
			c0.06,1.18-0.09,2.39-0.45,3.6l-11.95,35.22c-0.83,2.42-2.23,4.33-4.17,5.66c-1.47,1-3.06,1.5-4.74,1.5
			c-0.65,0-1.32-0.08-1.99-0.23c-1.31-0.23-2.44-0.72-3.35-1.46c-0.88-0.7-1.59-1.56-2.11-2.56l-0.05-0.11l-2.54-5.62l-2.76,6.82
			c-0.52,1.14-1.17,2.12-1.98,2.99c-0.83,0.9-1.85,1.64-3.03,2.2C158.12,71.77,156.71,72.14,155.35,72.14z"/>
		<path class="st3" d="M183.09,23.16c0.69-2.01,1.88-3.54,3.56-4.59c1.68-1.04,3.46-1.37,5.34-0.98c0.89,0.18,1.67,0.53,2.34,1.07
			c0.67,0.54,1.2,1.19,1.6,1.94s0.62,1.6,0.67,2.56c0.05,0.95-0.07,1.93-0.37,2.93l-11.93,35.15c-0.69,2.01-1.83,3.56-3.41,4.65
			c-1.59,1.08-3.32,1.4-5.2,0.96c-0.99-0.17-1.82-0.51-2.49-1.05c-0.67-0.53-1.2-1.18-1.6-1.93l-4.46-9.89l-4.52,11.16
			c-0.4,0.86-0.93,1.66-1.59,2.38c-0.67,0.73-1.47,1.31-2.41,1.75c-1.88,0.97-3.62,1.14-5.23,0.51c-1.61-0.64-2.76-1.86-3.46-3.68
			l-11.9-31.78c-0.3-0.92-0.42-1.86-0.37-2.82c0.05-0.97,0.27-1.88,0.67-2.74c0.4-0.86,0.93-1.66,1.59-2.39
			c0.67-0.72,1.45-1.3,2.34-1.73c1.88-0.92,3.68-1.1,5.38-0.53c1.71,0.57,2.88,1.76,3.53,3.59l6.69,18.67l3.33-10.01
			c0.54-1.69,1.37-2.99,2.49-3.88c1.11-0.88,2.29-1.4,3.52-1.52c1.24-0.12,2.4,0.13,3.49,0.76c1.09,0.63,1.88,1.61,2.38,2.96
			l3.42,9.06L183.09,23.16z"/>
		<path class="st0" d="M206.07,38.86c-2.64,0-4.92-1.47-6.09-3.92c-0.47-0.99-0.72-2.07-0.74-3.2c-0.02-1.51-0.03-8.28-0.02-9.08
			c-0.01-1.18,0.21-2.38,0.65-3.52c0.45-1.14,1.08-2.15,1.87-3.03c0.79-0.87,1.71-1.6,2.75-2.17c1.04-0.58,2.18-0.96,3.37-1.15
			c0.47-0.07,0.94-0.11,1.4-0.11c0.74,0,1.47,0.1,2.16,0.29c1.12,0.3,2.12,0.8,2.98,1.5c0.88,0.71,1.58,1.62,2.08,2.71
			c0.49,1.09,0.72,2.3,0.68,3.6c-0.01,0.57-0.01,1.64-0.01,2.86l0,1.03c0,4.17-1.98,8.74-5.06,11.63
			C210.31,37.94,208.18,38.86,206.07,38.86z"/>
		<path class="st3" d="M201.22,22.68c-0.01-0.97,0.16-1.91,0.52-2.82c0.36-0.9,0.85-1.71,1.49-2.41c0.64-0.7,1.38-1.29,2.23-1.76
			s1.75-0.78,2.71-0.92s1.86-0.11,2.72,0.13c0.86,0.23,1.61,0.61,2.25,1.12c0.64,0.52,1.14,1.18,1.51,1.98
			c0.37,0.81,0.53,1.71,0.5,2.7c-0.02,0.77-0.01,2.3-0.01,3.95c0,3.77-1.89,7.78-4.42,10.16c-3.13,2.94-7.28,2.71-8.93-0.74v0
			c-0.34-0.72-0.53-1.53-0.54-2.37C201.22,30.19,201.21,23.46,201.22,22.68z"/>
		<path class="st0" d="M226.37,61.99c-1.99,0-3.74-0.65-5.19-1.92c-1.78-1.57-2.69-3.68-2.69-6.3l-0.03-36.56
			c0-3.2,2.39-6.06,5.44-6.53l20.49-2.89c0.46-0.06,0.91-0.1,1.35-0.1c1.96,0,3.71,0.64,5.18,1.9c1.82,1.58,2.74,3.7,2.75,6.31
			c0,1.26-0.24,2.49-0.71,3.64c-0.44,1.09-1.05,2.1-1.81,2.99c-0.76,0.88-1.68,1.64-2.72,2.25c-1.09,0.64-2.29,1.05-3.59,1.24
			l-0.22,0.03c0.49,0.27,0.97,0.59,1.41,0.98c1.8,1.54,2.74,3.72,2.75,6.3c0,1.27-0.24,2.49-0.71,3.64
			c-0.45,1.11-1.06,2.11-1.82,2.99c-0.38,0.44-0.8,0.85-1.26,1.23c0.26-0.02,0.52-0.03,0.77-0.03c1.97,0,3.71,0.64,5.18,1.91
			c1.82,1.56,2.74,3.68,2.74,6.3c0,1.26-0.24,2.48-0.7,3.64c-0.45,1.11-1.07,2.12-1.82,3c-0.74,0.87-1.65,1.62-2.71,2.24
			c-1.09,0.64-2.29,1.05-3.57,1.23l-17.12,2.42C227.28,61.95,226.81,61.99,226.37,61.99z"/>
		<path class="st3" d="M244.68,43.23l-10.24,1.45l0-2.5l5.14-0.73c1-0.14,2-0.45,2.92-0.98c0.86-0.5,1.6-1.11,2.22-1.83
			c0.62-0.72,1.11-1.53,1.48-2.44c0.37-0.91,0.56-1.87,0.56-2.88c0-2.01-0.69-3.61-2.05-4.78c-1.36-1.17-3.01-1.62-4.94-1.35
			l-5.34,0.76l0-2.5l10.12-1.43c0.98-0.14,1.96-0.45,2.85-0.98c0.86-0.5,1.59-1.11,2.21-1.82c0.62-0.72,1.11-1.53,1.48-2.45
			c0.37-0.91,0.56-1.87,0.56-2.88c0-2.02-0.69-3.61-2.05-4.79c-1.36-1.17-3.01-1.61-4.94-1.34l-20.41,2.88c-0.02,0-0.03,0-0.05,0.01
			c-2.1,0.32-3.73,2.41-3.73,4.55l0,3.63l0.01,9.96l0.02,22.97c0,2.02,0.67,3.61,2.01,4.79c1.34,1.17,3,1.62,4.98,1.34l17.12-2.42
			c0.97-0.14,1.94-0.46,2.83-0.98c0.86-0.5,1.59-1.1,2.2-1.82c0.62-0.72,1.11-1.53,1.48-2.44c0.37-0.92,0.56-1.87,0.56-2.88
			c0-2.02-0.69-3.61-2.05-4.78C248.26,43.41,246.61,42.96,244.68,43.23z"/>
		<path class="st0" d="M58.57,85.69c-1.99,0-3.74-0.65-5.19-1.92c-1.78-1.57-2.69-3.68-2.69-6.3l-0.03-36.56
			c0-3.2,2.39-6.06,5.44-6.53l3.08-0.43c0.48-0.07,0.96-0.1,1.42-0.1c0.82,0,1.6,0.11,2.33,0.32c1.14,0.33,2.14,0.88,2.98,1.61
			c0.84,0.74,1.5,1.66,1.99,2.74c0.49,1.09,0.74,2.32,0.74,3.67l0.01,7.99l4.3-0.61l-0.01-11.8c0-3.2,2.38-6.06,5.44-6.53l3.19-0.45
			c0.43-0.06,0.87-0.09,1.3-0.09c1.93,0,3.75,0.63,5.14,1.79c1.93,1.61,2.9,3.76,2.91,6.41l0.02,33.46c0,2.51-0.85,4.76-2.54,6.68
			c-1.68,1.92-3.76,3.07-6.16,3.41c-0.47,0.07-0.94,0.1-1.39,0.1c-1.99,0-3.74-0.65-5.19-1.92c-1.78-1.57-2.69-3.68-2.69-6.3l0-6.47
			l-4.3,0.61l0.01,7.04c0,2.51-0.85,4.76-2.54,6.68c-1.68,1.92-3.76,3.07-6.16,3.41C59.49,85.66,59.02,85.69,58.57,85.69z"/>
		<path class="st3" d="M86.71,34.02c-1.3-1.09-3.07-1.5-4.87-1.25l-3.12,0.44c-0.02,0-0.03,0-0.05,0.01
			c-2.1,0.32-3.73,2.41-3.73,4.55l0,3.63l0,4.2l0,5.72l-8.32,1.17l-0.01-10.3c0-1-0.17-1.98-0.56-2.85
			c-0.37-0.82-0.87-1.51-1.48-2.05c-0.62-0.54-1.36-0.94-2.23-1.19c-0.91-0.27-1.91-0.3-2.9-0.16l-3,0.42c-0.02,0-0.03,0-0.05,0.01
			c-2.1,0.32-3.73,2.41-3.73,4.55l0,3.63l0,3.57l0.02,29.36c0,2.02,0.67,3.61,2.01,4.79c1.34,1.17,3,1.62,4.98,1.34
			c1.93-0.27,3.57-1.19,4.93-2.74c1.36-1.55,2.04-3.34,2.04-5.36l-0.01-8.78l8.32-1.17l0.01,8.78c0,2.02,0.67,3.61,2.01,4.79
			c1.34,1.17,3,1.62,4.98,1.34c1.93-0.27,3.57-1.19,4.93-2.74c1.36-1.55,2.04-3.34,2.04-5.36L88.9,38.9
			C88.9,36.86,88.17,35.24,86.71,34.02z"/>
		<path class="st0" d="M261.53,57.02c-1.99,0-3.74-0.65-5.19-1.92c-1.78-1.57-2.69-3.68-2.69-6.29l-0.03-36.69
			c0-3.14,2.41-5.95,5.5-6.41l3.2-0.45c0.45-0.06,0.89-0.1,1.32-0.1c0.93,0,1.82,0.15,2.64,0.45c1.18,0.42,2.21,1.07,3.05,1.92
			l7.69,6.81l2.16-2.58c1.09-1.29,2.25-2.67,3.48-4.16l2.9-3.46c1.32-1.58,3.07-2.59,4.92-2.86l1.24-0.17
			c0.45-0.06,0.9-0.1,1.33-0.1c1.98,0,3.73,0.66,5.21,1.95c1.81,1.6,2.73,3.7,2.73,6.26l0.02,33.46c0,2.51-0.85,4.76-2.53,6.68
			c-1.68,1.92-3.76,3.07-6.16,3.41c-0.47,0.07-0.93,0.1-1.38,0.1c0,0,0,0,0,0c-2.01,0-3.74-0.66-5.16-1.96
			c-1.71-1.56-2.58-3.68-2.58-6.27l-0.06-10.96c-1.57,1.54-3.41,2.47-5.49,2.77c-0.44,0.06-0.87,0.09-1.29,0.09
			c-1.78,0-3.4-0.54-4.8-1.62l0.06,11.91c-0.06,2.55-0.92,4.78-2.56,6.68c-1.66,1.93-3.73,3.07-6.14,3.42
			C262.44,56.99,261.98,57.02,261.53,57.02z"/>
		<path class="st3" d="M296.94,4.46c-1.36-1.19-3.01-1.65-4.94-1.38l-1.19,0.17c-0.01,0-0.03,0-0.04,0.01
			c-1.39,0.2-2.7,1.01-3.67,2.16l-2.89,3.46c-1.24,1.49-2.4,2.88-3.49,4.16l-3.49,4.17l-9.29-8.23c-0.64-0.67-1.42-1.16-2.34-1.49
			c-0.92-0.33-1.92-0.41-3.01-0.25l-3.19,0.45v0c-2.1,0.31-3.79,2.28-3.79,4.42l0,3.76l0,0.23l0.01,11.61l0.02,21.09
			c0,2.02,0.67,3.61,2.01,4.79c1.34,1.17,3,1.62,4.98,1.34c1.93-0.27,3.56-1.19,4.9-2.74c1.33-1.55,2.02-3.34,2.07-5.36l-0.09-16.27
			l2.9,2.47c1.38,1.22,3.03,1.69,4.94,1.42c1.9-0.27,3.55-1.21,4.93-2.82l2.82-3.28l0.09,16.27c0,2.02,0.64,3.62,1.93,4.8
			c1.28,1.18,2.92,1.63,4.9,1.35c1.93-0.27,3.57-1.19,4.93-2.74c1.36-1.55,2.04-3.34,2.04-5.36l-0.02-33.46
			C298.98,7.24,298.3,5.66,296.94,4.46z"/>
	</g>
</g>
</svg>
