<?xml version="1.0" encoding="utf-8"?>
<!-- Generator: Adobe Illustrator 27.0.0, SVG Export Plug-In . SVG Version: 6.00 Build 0)  -->
<svg version="1.1" id="Layer_1" xmlns="http://www.w3.org/2000/svg" xmlns:xlink="http://www.w3.org/1999/xlink" x="0px" y="0px"
	 viewBox="0 0 287 36" style="enable-background:new 0 0 287 36;" xml:space="preserve">
<style type="text/css">
	.st0{fill:#FFFFFF;}
</style>
<g>
	<path class="st0" d="M230.39,1.76v9.4l4.8,0v5.88h-4.8v9.41c0,1.62,1.32,2.94,2.94,2.94c0.55,0,1.41-0.17,1.87-0.39l1.96,5.49
		c-0.83,0.54-2.57,0.78-3.83,0.78c-4.87,0-8.82-3.95-8.82-8.82l0-9.41l-4.41,0v-5.88l4.41,0V6.86L230.39,1.76z"/>
	<path class="st0" d="M284.41,11.36v5.29c-1.47-0.44-3.29-0.73-5.09-0.73c-0.81,0-1.47,0.66-1.47,1.47c0,0.59,0.29,1.23,0.74,1.45
		l4.48,2.91c2.13,1.25,3.6,3.8,3.6,6.52c0,4.04-3.31,7.35-7.35,7.35c-3.26,0-6.42-0.64-8.99-1.69l1.62-4.92
		c2.13,0.88,4.6,1.47,7.37,1.47c1.25,0,2.2-0.96,2.2-2.2c0-0.81-0.44-1.74-1.1-2.11l-4.78-2.99c-1.1-0.73-3.09-2.69-3.09-5.78
		c0-3.75,3.23-6.61,6.76-6.61C281.27,10.77,283.05,11.01,284.41,11.36z"/>
	<path class="st0" d="M86.07,10.97c-3.61,0-5.65,1.26-7.11,3.52c-1.5-2.14-3.93-3.52-6.79-3.52c-2.26,0-4.34,1.02-5.49,3.08
		l-0.28,0.71c-0.24-1.48-0.65-2.7-1.2-3.59h-5.49c0.65,1.67,1.08,4.44,1.08,5.88c0,4.41,0,18.22,0,18.22h0h5.48h0.4V21.25
		c0-2.43,1.58-4.41,4.02-4.41c2.43,0,4.02,1.97,4.02,4.41v14.01h5.88V20.91c0,0,0,0,0,0c0.14-2.27,1.68-4.07,4-4.07
		c2.43,0,4.02,1.97,4.02,4.41v14.01h5.88V19.79C94.49,14.92,90.49,10.97,86.07,10.97z"/>
	<path class="st0" d="M210.41,13.66c-0.24-0.99-0.57-1.84-0.98-2.49h-5.49c0.64,1.65,1.07,4.38,1.08,5.82c0.02,4.57,0,18.28,0,18.28
		h5.88V19.09c1.56-1.4,3.62-2.25,5.88-2.25v-5.88C214.95,10.97,212.14,12.1,210.41,13.66z"/>
	<path class="st0" d="M7.91,17.81c-2.84-1.66-4.76-4.74-4.76-8.26C3.15,4.28,7.43,0,12.7,0c3.41,0,6.71,0.48,9.83,1.39l-1.87,5.58
		c-2.53-0.71-5.2-1.09-7.96-1.09c-2.03,0-3.67,1.65-3.67,3.67c0,1.37,0.75,2.55,1.86,3.19l6.97,4.07c3.07,1.79,5.14,5.1,5.14,8.91
		C22.99,31.39,18.38,36,12.7,36C8.23,36,3.95,35.19,0,33.69l1.86-5.58c3.36,1.3,7.02,2.01,10.84,2.01c2.43,0,4.41-1.97,4.41-4.41
		c0-1.63-0.89-3.05-2.2-3.82L7.91,17.81z"/>
	<path class="st0" d="M121.69,0v14.69h14.69V0h5.88v35.27h-5.88v-14.7h-14.69v14.7h-5.88V0H121.69z"/>
	<path class="st0" d="M169.84,29.39c0-4.41,0-18.22,0-18.22h-5.49l0,0h-0.39v14.94c0,2.42-1.98,4.02-4.41,4.02
		c-2.43,0-4.41-1.99-4.41-4.41V11.17h-5.88v14.16c0,5.68,4.61,10.28,10.29,10.28c2.41,0,4.21-0.91,5.47-2.38
		c0.41,0.8,0.93,1.49,1.58,2.04h5.1C170.56,33.59,169.84,30.82,169.84,29.39z"/>
	<path class="st0" d="M187.57,10.68c-2.37,0-4.53,0.7-6.44,2.08c-3.33,2.4-5.02,5.66-5.02,9.68v1.15c0,4.06,1.69,7.33,5.02,9.73
		c1.91,1.36,4.09,2.04,6.49,2.04h0.55c3.04,0,5.83-0.88,8.28-2.63l-3.11-4.18c-1.47,1.05-3.24,1.6-5.14,1.6
		c-0.62,0-1.16-0.04-1.6-0.13c-1.31-0.29-2.42-0.94-3.29-1.92c-0.77-0.87-1.35-2.39-1.47-3.51l16.8,0v-2.81
		C198.65,14.92,194.37,10.68,187.57,10.68z M183.91,16.87c1.06-0.87,2.3-1.31,3.67-1.31c3.08,0,5.19,1.68,5.19,4.24l0.01,0.47
		l-10.8,0l0.01-0.47C182.2,18.47,182.85,17.74,183.91,16.87z"/>
	<path class="st0" d="M54.51,35.27c-1.14-1.67-1.86-4.44-1.86-5.88c0-2.34,0-18.22,0-18.22v0h-5.29l-0.59,1.98v0
		c-1.49-1.3-3.74-2.17-5.88-2.17c-6.46,0-11.76,4.75-11.76,12.15c0,7.6,5.29,12.35,11.76,12.35c2.43,0,5.12-1.31,6.62-2.96
		c0.25,0.65,0.58,1.24,0.96,1.76c0.28,0.39,0.59,0.74,0.94,1L54.51,35.27C54.51,35.27,54.51,35.27,54.51,35.27L54.51,35.27z
		 M40.89,29.78c-3.23,0-5.88-2.42-5.88-6.66c0-3.87,2.65-6.46,5.88-6.46c3.23,0,5.88,2.72,5.88,6.46
		C46.77,26.97,44.13,29.78,40.89,29.78z"/>
	<path class="st0" d="M266.37,35.27c-1.14-1.67-1.86-4.44-1.86-5.88c0-2.34,0-18.22,0-18.22v0h-5.29l-0.59,1.98v0
		c-1.49-1.3-3.74-2.17-5.88-2.17c-6.46,0-11.76,4.75-11.76,12.15c0,7.6,5.29,12.35,11.76,12.35c2.43,0,5.12-1.31,6.62-2.96
		c0.25,0.65,0.58,1.24,0.96,1.76c0.28,0.39,0.59,0.74,0.94,1L266.37,35.27C266.37,35.27,266.37,35.27,266.37,35.27L266.37,35.27z
		 M252.75,29.78c-3.23,0-5.88-2.42-5.88-6.66c0-3.87,2.65-6.46,5.88-6.46c3.23,0,5.88,2.72,5.88,6.46
		C258.63,26.97,255.98,29.78,252.75,29.78z"/>
</g>
</svg>
